<svg width="19" height="19" viewBox="0 0 19 19"
  xmlns="http://www.w3.org/2000/svg" fill="#047535">
  <path fill-rule="evenodd" clip-rule="evenodd" d="M8.70825 3.16659C5.64767 3.16659 3.16659 5.64767 3.16659 8.70825C3.16659 11.7688 5.64767 14.2499 8.70825 14.2499C11.7688 14.2499 14.2499 11.7688 14.2499 8.70825C14.2499 5.64767 11.7688 3.16659 8.70825 3.16659ZM1.58325 8.70825C1.58325 4.77322 4.77322 1.58325 8.70825 1.58325C12.6433 1.58325 15.8333 4.77322 15.8333 8.70825C15.8333 12.6433 12.6433 15.8333 8.70825 15.8333C4.77322 15.8333 1.58325 12.6433 1.58325 8.70825Z"/>
  <path fill-rule="evenodd" clip-rule="evenodd" d="M12.6215 12.6215C12.9307 12.3124 13.4319 12.3124 13.7411 12.6215L17.1849 16.0653C17.494 16.3744 17.494 16.8757 17.1849 17.1849C16.8757 17.494 16.3744 17.494 16.0653 17.1849L12.6215 13.7411C12.3124 13.4319 12.3124 12.9307 12.6215 12.6215Z"/>
</svg>
