<svg width="275" height="74" viewBox="0 0 275 74" fill="none" xmlns="http://www.w3.org/2000/svg">
<g clip-path="url(#clip0)">
<path fill-rule="evenodd" clip-rule="evenodd" d="M50.2825 61.8265C50.2199 61.9277 50.1545 62.0271 50.0901 62.1265C50.0257 62.2256 49.9621 62.3243 49.8973 62.4219C49.8344 62.517 49.7704 62.611 49.7056 62.7046C49.6434 62.7972 49.5797 62.8887 49.5161 62.9795C49.4528 63.0695 49.3898 63.1592 49.3262 63.2482C49.2643 63.3339 49.201 63.42 49.1384 63.5053C49.0755 63.5903 49.0133 63.6753 48.95 63.7596C48.8888 63.841 48.8259 63.9213 48.763 64.002C48.7011 64.0823 48.64 64.1634 48.5767 64.243C48.5159 64.3208 48.4537 64.3964 48.3918 64.4731C48.3296 64.5491 48.2688 64.6262 48.2066 64.7008C48.1458 64.7746 48.0836 64.847 48.0224 64.9198C47.9616 64.9925 47.9009 65.0653 47.839 65.137C47.7789 65.2068 47.7167 65.276 47.6559 65.3448C47.5951 65.4139 47.5351 65.4835 47.4729 65.5519C47.4132 65.6189 47.352 65.6852 47.2912 65.7514C47.2308 65.8177 47.1707 65.8829 47.11 65.9488C47.0495 66.0129 46.9895 66.0767 46.9287 66.1404C46.869 66.2031 46.8089 66.2651 46.7489 66.327C46.6884 66.3893 46.6287 66.4509 46.568 66.5125C46.509 66.5723 46.4489 66.631 46.3888 66.6908C46.3291 66.7499 46.2702 66.8093 46.2101 66.8687C46.1508 66.9256 46.0903 66.9818 46.0306 67.0387C45.972 67.0949 45.9123 67.1518 45.8526 67.2084C45.7933 67.2635 45.7339 67.3186 45.6749 67.373C45.6159 67.427 45.557 67.4803 45.4969 67.534C45.4379 67.5873 45.3796 67.6417 45.3199 67.6946C45.2613 67.7461 45.2016 67.7969 45.1433 67.8481C45.0844 67.8988 45.0254 67.95 44.966 68.0015C44.9078 68.0512 44.8491 68.1009 44.7898 68.1502C44.7323 68.1989 44.6733 68.2471 44.6143 68.2958C44.5553 68.3444 44.4978 68.3934 44.4384 68.4413C44.3805 68.4874 44.3222 68.5331 44.2636 68.5796C44.2057 68.6261 44.1471 68.6721 44.0885 68.7183C44.0309 68.7633 43.9723 68.8087 43.9137 68.8537C43.8561 68.898 43.7979 68.9416 43.7396 68.9852C43.6813 69.0291 43.6238 69.0734 43.5659 69.1166C43.508 69.1595 43.4501 69.2016 43.3922 69.2434C43.3343 69.2855 43.276 69.327 43.2185 69.3684C43.1602 69.4094 43.103 69.4519 43.0451 69.4934C42.9879 69.533 42.9296 69.5722 42.8721 69.6115C42.8146 69.6511 42.7574 69.6911 42.6991 69.73C42.6419 69.7693 42.5844 69.8085 42.5268 69.8471C42.47 69.8852 42.4121 69.9216 42.3546 69.9591C42.2974 69.9962 42.2398 70.034 42.183 70.0711C42.1254 70.1078 42.0686 70.1449 42.0107 70.181C41.9539 70.217 41.8967 70.2516 41.8399 70.2872C41.7827 70.3225 41.7259 70.3585 41.6683 70.3931C41.6111 70.4277 41.5543 70.4623 41.4971 70.4968C41.4407 70.5303 41.3831 70.5631 41.3266 70.5966C41.2691 70.6297 41.213 70.6636 41.1558 70.6964C41.099 70.7292 41.0425 70.7619 40.9853 70.7943C40.9285 70.8257 40.872 70.8567 40.8152 70.8884C40.7584 70.92 40.7023 70.9517 40.6454 70.9824C40.5886 71.0137 40.5322 71.044 40.475 71.0746C40.4189 71.1048 40.3624 71.1336 40.3059 71.1639C40.2498 71.1927 40.193 71.2233 40.1369 71.2525C40.0801 71.2813 40.024 71.3105 39.9668 71.3389C39.9117 71.3674 39.8546 71.3944 39.7985 71.4225C39.7423 71.4499 39.6862 71.478 39.6294 71.5057C39.5729 71.5334 39.5176 71.5608 39.4607 71.5875C39.405 71.6145 39.3482 71.6397 39.2924 71.666C39.2367 71.6916 39.1809 71.7182 39.1248 71.7441C39.0683 71.7694 39.0126 71.796 38.9561 71.8212C38.9004 71.8461 38.8443 71.8699 38.7885 71.894C38.7328 71.9185 38.677 71.9437 38.6206 71.9671C38.5652 71.9916 38.5094 72.0164 38.4533 72.0406C38.3979 72.0636 38.3415 72.0852 38.2857 72.109C38.2307 72.1313 38.1746 72.1544 38.1188 72.1767C38.0635 72.1987 38.0077 72.2218 37.952 72.2444C37.8966 72.2661 37.8408 72.2873 37.7851 72.3093C37.7293 72.3302 37.6739 72.3514 37.6186 72.372C37.5628 72.3932 37.5078 72.4145 37.452 72.435C37.3963 72.4552 37.3413 72.4764 37.2855 72.4962C37.2305 72.516 37.1751 72.5347 37.1197 72.5546C37.0647 72.574 37.0089 72.5938 36.9539 72.6126C36.8982 72.6316 36.8431 72.6514 36.7874 72.6705C36.7324 72.6889 36.6773 72.7058 36.6216 72.7238C36.5673 72.7426 36.5115 72.7595 36.4565 72.7772C36.4015 72.7952 36.3464 72.8135 36.2911 72.8308C36.236 72.8481 36.181 72.8647 36.126 72.8816C36.0713 72.8978 36.0156 72.9137 35.9613 72.9302C35.9062 72.9464 35.8512 72.963 35.7962 72.9789C35.7411 72.9943 35.6861 73.0116 35.6307 73.0264C35.5764 73.0419 35.5214 73.0559 35.4664 73.0707C35.4121 73.0855 35.357 73.101 35.3024 73.115C35.2473 73.1294 35.193 73.1449 35.138 73.1593C35.0833 73.173 35.0283 73.1867 34.974 73.2004C34.9193 73.2137 34.8643 73.2267 34.81 73.2396C34.755 73.253 34.7003 73.2666 34.646 73.2793C34.591 73.2919 34.5366 73.3063 34.4816 73.3185C34.4277 73.3311 34.3726 73.3412 34.3183 73.3535C34.2637 73.3657 34.2094 73.3769 34.155 73.3884C34.1004 73.3999 34.0461 73.4125 33.9918 73.4233C33.9371 73.4348 33.8828 73.446 33.8281 73.4568C33.7742 73.4673 33.7195 73.4766 33.6652 73.4871L33.5023 73.5177C33.448 73.5281 33.394 73.5389 33.3397 73.5487C33.2854 73.558 33.2311 73.5663 33.1764 73.5757C33.1228 73.5843 33.0682 73.593 33.0146 73.6016C32.9606 73.6106 32.9063 73.6193 32.852 73.6279C32.7977 73.6365 32.7437 73.6452 32.6898 73.6531C32.6358 73.6614 32.5815 73.6675 32.5276 73.6754C32.4736 73.683 32.4197 73.6902 32.3657 73.6974L32.2039 73.719C32.1755 73.7234 32.1474 73.7273 32.1187 73.7306L32.042 73.7406L31.8802 73.7612L31.718 73.7824L31.5565 73.8044L31.3943 73.8256L31.2325 73.8462L31.0706 73.8663L30.9091 73.8858L30.7469 73.9042C30.6937 73.9099 30.6405 73.9157 30.5861 73.9215C30.5326 73.9269 30.4786 73.9319 30.425 73.9369C30.3718 73.942 30.3178 73.9467 30.2635 73.9513C30.2103 73.9557 30.1567 73.96 30.1028 73.964C30.0492 73.9679 29.9959 73.9719 29.942 73.9755C29.8888 73.9787 29.8355 73.982 29.7809 73.9845C29.7284 73.9877 29.6751 73.9903 29.6212 73.9928C29.5676 73.9949 29.5144 73.9967 29.4604 73.9985C29.4075 74 29.3543 74.0018 29.3004 74.0025C29.2479 74.0036 29.1943 74.0047 29.141 74.005C29.0885 74.0057 29.0349 74.0057 28.981 74.0057C28.9288 74.0057 28.8752 74.005 28.8217 74.0047C28.7695 74.0043 28.7159 74.0032 28.6627 74.0018C28.6102 74.0007 28.5573 73.9989 28.5034 73.9975C28.4512 73.9953 28.3983 73.9935 28.3444 73.991C28.2926 73.9884 28.2394 73.9859 28.1861 73.9827C28.1343 73.9794 28.0808 73.9766 28.0282 73.973C27.9754 73.969 27.9225 73.9658 27.87 73.9611C27.8175 73.9571 27.7643 73.9532 27.7117 73.9481C27.6592 73.9434 27.6067 73.9384 27.5539 73.9333C27.5017 73.9283 27.4492 73.9225 27.396 73.9168C27.3442 73.911 27.2913 73.9049 27.2384 73.8984L27.1446 73.8869C27.1233 73.8847 27.1028 73.8811 27.0816 73.8786C27.0284 73.8714 26.9766 73.8638 26.9241 73.8563C26.8723 73.8491 26.8191 73.8429 26.7673 73.8346C26.7141 73.8267 26.663 73.817 26.6105 73.8087C26.5583 73.8004 26.5055 73.7914 26.454 73.7831C26.4015 73.7738 26.3497 73.7633 26.2972 73.7536C26.2454 73.7446 26.1929 73.7345 26.1415 73.7241C26.0893 73.714 26.0372 73.7032 25.9854 73.6924C25.9336 73.6819 25.8811 73.6697 25.8297 73.6582C25.7775 73.647 25.7261 73.6358 25.6736 73.6247C25.6218 73.6124 25.5703 73.5984 25.5185 73.5865C25.4668 73.5735 25.415 73.5613 25.3635 73.5487C25.3117 73.535 25.2603 73.5209 25.2085 73.5072C25.1564 73.4928 25.1049 73.4791 25.0539 73.4651C25.0021 73.4503 24.9506 73.4356 24.8989 73.4208C24.8474 73.4057 24.7963 73.3902 24.7446 73.3747C24.6931 73.3592 24.6413 73.3437 24.5906 73.3275C24.5388 73.3106 24.4878 73.294 24.4363 73.2771C24.3853 73.2605 24.3335 73.2443 24.2828 73.227C24.231 73.2094 24.1799 73.1906 24.1288 73.1726C24.0778 73.1546 24.0267 73.137 23.976 73.1186C23.9242 73.0995 23.8735 73.0797 23.8228 73.0606C23.7717 73.0415 23.7199 73.0221 23.6695 73.0026C23.6185 72.9825 23.5674 72.9619 23.517 72.941C23.466 72.9201 23.4149 72.8996 23.3645 72.8784C23.3135 72.8571 23.2628 72.8362 23.2121 72.8142C23.161 72.7923 23.1103 72.77 23.0603 72.7476C23.0092 72.7253 22.9585 72.7026 22.9081 72.6795C22.8571 72.6561 22.8067 72.6327 22.756 72.6086C22.7057 72.5848 22.6549 72.5614 22.6046 72.5373C22.5542 72.5124 22.5039 72.4872 22.4539 72.4623C22.4035 72.4368 22.3525 72.4123 22.3028 72.3867C22.2521 72.3604 22.2021 72.3334 22.1518 72.3071C22.1018 72.2808 22.0514 72.2545 22.0014 72.2275C21.9511 72.2001 21.9011 72.172 21.8515 72.1436C21.8008 72.1162 21.7508 72.0885 21.7008 72.06C21.6504 72.0312 21.6011 72.002 21.5515 71.9729C21.5015 71.943 21.4512 71.9142 21.4019 71.8843C21.3512 71.8536 21.3019 71.8234 21.2519 71.7924C21.2026 71.7614 21.1526 71.7308 21.103 71.6991C21.053 71.6678 21.0037 71.6357 20.9545 71.6037C20.9045 71.5713 20.8552 71.5388 20.8063 71.5057C20.7559 71.4722 20.707 71.4387 20.6574 71.4056C20.6081 71.3714 20.5585 71.3375 20.5096 71.3029C20.4596 71.2683 20.4107 71.2331 20.3618 71.1974C20.3121 71.1625 20.2628 71.1268 20.2139 71.0908C20.1647 71.0544 20.1161 71.0169 20.0668 70.9802C20.0176 70.9431 19.9686 70.906 19.9201 70.8689C19.8708 70.8304 19.8219 70.7915 19.7734 70.7529C19.7248 70.7144 19.6752 70.6758 19.627 70.6362C19.5777 70.5966 19.5295 70.5559 19.4809 70.5148C19.432 70.4745 19.3835 70.4349 19.3353 70.3931C19.286 70.352 19.2375 70.3092 19.1893 70.2663C19.1407 70.2245 19.0922 70.182 19.0447 70.1392C18.9954 70.0952 18.9476 70.0513 18.8994 70.007C18.8512 69.9627 18.8034 69.918 18.7548 69.873C18.7066 69.8276 18.6584 69.7819 18.6109 69.735C18.562 69.6886 18.5145 69.6421 18.4671 69.5949C18.4189 69.5474 18.3707 69.4999 18.3232 69.4512C18.2757 69.403 18.2279 69.3533 18.1804 69.3039C18.1326 69.2542 18.0844 69.2049 18.0373 69.1552C17.9894 69.1037 17.9423 69.0518 17.8952 68.9999C17.8477 68.9484 17.7999 68.8958 17.7531 68.8432C17.7057 68.7899 17.6586 68.7363 17.6114 68.6822C17.5643 68.6278 17.5176 68.5727 17.4705 68.5169C17.4233 68.4611 17.3766 68.406 17.3298 68.3501C17.2824 68.2925 17.2363 68.2342 17.1896 68.1758C17.1428 68.1175 17.096 68.0588 17.05 67.999C17.0033 67.9392 16.9565 67.879 16.9108 67.8182C16.8637 67.7566 16.8177 67.6943 16.772 67.6316C16.7256 67.5686 16.6792 67.5055 16.6339 67.4418C16.5875 67.3769 16.5415 67.3114 16.4961 67.2462C16.4497 67.1792 16.4044 67.1122 16.3591 67.0452C16.3131 66.9768 16.2674 66.9083 16.2221 66.8395C16.1768 66.7697 16.1318 66.6983 16.0861 66.6278C16.0408 66.5557 15.9962 66.4826 15.9513 66.4095C15.9063 66.3353 15.861 66.2607 15.8167 66.1858C15.7718 66.1095 15.7265 66.0327 15.6829 65.9564C15.638 65.8771 15.5941 65.7972 15.5502 65.7172C15.5053 65.6358 15.4618 65.5537 15.4182 65.4719C15.374 65.3873 15.3301 65.303 15.287 65.2184C15.2431 65.1308 15.1992 65.044 15.1568 64.9565C15.1129 64.8668 15.0701 64.7753 15.0276 64.6849C14.9841 64.5909 14.9417 64.4958 14.8996 64.4015C14.8568 64.3039 14.8144 64.2059 14.773 64.1076C14.7306 64.0056 14.6888 63.9033 14.6482 63.8007C14.6058 63.6948 14.5644 63.5882 14.5245 63.4816C14.4824 63.3703 14.4418 63.2582 14.4022 63.1455C14.3605 63.0288 14.3213 62.9107 14.2824 62.7925C14.2414 62.6686 14.2026 62.5447 14.1641 62.4194C14.1245 62.2879 14.0861 62.1557 14.0494 62.0228C14.0098 61.882 13.9724 61.7412 13.9372 61.5989C13.8994 61.4473 13.8624 61.2953 13.8285 61.1429C13.7915 60.9754 13.7573 60.8076 13.7253 60.6386C13.6901 60.4539 13.6573 60.2691 13.6279 60.0829C13.5948 59.8711 13.5653 59.6582 13.5397 59.4439C13.5099 59.1911 13.4851 58.9375 13.466 58.6821C13.4405 58.3472 13.425 58.01 13.4193 57.6715C13.4175 57.5742 13.416 57.4773 13.416 57.3804C13.416 56.7616 13.4423 56.1605 13.4937 55.5752C13.521 55.2723 13.5545 54.9744 13.594 54.6798C14.217 50.1026 16.5857 46.3235 19.7892 43.0841C21.4803 45.8449 23.1002 48.5127 24.6367 49.9722C26.6806 51.9125 27.8509 51.9132 29.8949 49.9722C31.6288 48.3251 33.7882 45.462 35.635 42.2596V42.26C38.1854 37.8376 39.2162 33.9448 39.1827 30.6545C39.1899 30.3163 39.1813 29.9781 39.1572 29.6334L39.2262 29.5704C40.3786 28.7971 43.814 26.3096 46.2928 22.76C46.3317 22.6819 46.3734 22.6055 46.4104 22.527C47.8433 24.9089 48.7759 26.9237 49.8865 29.4216C49.929 29.5156 49.9714 29.6107 50.0142 29.7065C50.057 29.8012 50.0991 29.897 50.1415 29.9936C50.184 30.089 50.2264 30.1859 50.2689 30.2824C50.3113 30.3793 50.353 30.4773 50.3958 30.5749C50.4379 30.6725 50.4796 30.7701 50.5224 30.8688C50.5641 30.9675 50.6066 31.0669 50.6487 31.1663C50.6904 31.2657 50.7325 31.3662 50.7749 31.4664C50.8166 31.5669 50.8583 31.6673 50.9004 31.7686C50.9421 31.8701 50.9839 31.9731 51.0252 32.0751C51.0669 32.1781 51.109 32.2807 51.15 32.3838C51.1921 32.4875 51.2338 32.5912 51.2752 32.6957C51.3165 32.8001 51.3575 32.906 51.3993 33.0119C51.441 33.1174 51.4823 33.2233 51.5226 33.3303C51.5643 33.4373 51.6053 33.5453 51.6471 33.653C51.6873 33.7614 51.7287 33.8706 51.7693 33.9804C51.8107 34.0899 51.8514 34.1998 51.8924 34.31C51.933 34.422 51.9736 34.5337 52.0143 34.6457C52.0549 34.7588 52.0952 34.8723 52.1355 34.9861C52.1761 35.1002 52.2168 35.2141 52.2567 35.3293C52.297 35.4453 52.3373 35.5624 52.3775 35.6798C52.4175 35.7976 52.457 35.9157 52.4966 36.0346C52.5365 36.1545 52.5768 36.2744 52.6156 36.3951C52.6563 36.5176 52.6955 36.6393 52.7343 36.7621C52.7739 36.8868 52.8131 37.0117 52.8519 37.1371C52.8918 37.2639 52.9307 37.3903 52.9692 37.5182C53.008 37.6471 53.0469 37.776 53.0853 37.9057C53.1242 38.039 53.1623 38.1715 53.2004 38.3048C53.2389 38.4406 53.2767 38.5764 53.3144 38.7125C53.3526 38.8519 53.39 38.9909 53.4267 39.1303C53.4644 39.2733 53.5022 39.4163 53.5385 39.559C53.5756 39.7066 53.613 39.8532 53.6486 40.0009C53.686 40.154 53.7212 40.3067 53.7568 40.4594C53.7935 40.6179 53.8288 40.776 53.8633 40.9345C53.8993 41.1002 53.9341 41.2644 53.9676 41.4301C54.0028 41.6026 54.0366 41.7752 54.0687 41.948C54.1032 42.1307 54.1359 42.3129 54.1676 42.4955C54.2006 42.6904 54.2323 42.8842 54.2614 43.0776C54.2934 43.2868 54.324 43.4965 54.351 43.7047C54.3819 43.9381 54.4082 44.1704 54.433 44.4016C54.4607 44.6667 54.4844 44.9307 54.5035 45.1926C54.5276 45.5182 54.5448 45.842 54.5553 46.1629C54.5617 46.383 54.5664 46.6023 54.5664 46.8199C54.5664 47.0767 54.5617 47.3335 54.5553 47.5892C54.511 49.1928 54.3323 50.7725 54.0273 52.3119C53.9334 52.7849 53.827 53.2531 53.7108 53.7181C53.6255 54.0556 53.5356 54.3913 53.4392 54.7241C53.3601 54.9949 53.2763 55.2644 53.1896 55.532C53.1134 55.7675 53.0343 56.002 52.9519 56.2347C52.8782 56.4447 52.8012 56.6536 52.7228 56.8614C52.6502 57.0519 52.5761 57.241 52.5002 57.4301C52.4293 57.6052 52.3563 57.7795 52.2819 57.9528C52.2128 58.1159 52.1409 58.2776 52.0689 58.439C51.9999 58.5917 51.9301 58.7434 51.8585 58.8954C51.7902 59.0394 51.7215 59.1835 51.6514 59.3269C51.5838 59.4637 51.5158 59.5992 51.446 59.7346C51.3802 59.8635 51.3119 59.9914 51.2435 60.1185C51.1777 60.2428 51.1105 60.366 51.0428 60.4888C50.9767 60.6077 50.9112 60.7269 50.8432 60.845C50.7788 60.9581 50.7127 61.0698 50.6461 61.1818C50.5814 61.2909 50.5156 61.3997 50.4501 61.5081C50.3857 61.614 50.321 61.7203 50.2548 61.8254L50.2825 61.8265Z" fill="url(#paint0_linear)"/>
<path fill-rule="evenodd" clip-rule="evenodd" d="M1.69292 56.1548C1.65767 56.0594 1.62278 55.9636 1.58897 55.8681C1.55445 55.7727 1.52136 55.6769 1.48791 55.581C1.45554 55.486 1.42281 55.3898 1.39044 55.2943C1.35915 55.1993 1.32822 55.1038 1.29729 55.0084C1.26672 54.9122 1.23687 54.8171 1.20702 54.7213C1.17788 54.6255 1.14911 54.53 1.12034 54.4346C1.09228 54.3391 1.06495 54.2433 1.03726 54.1479C1.01028 54.0524 0.984027 53.9566 0.957772 53.8615C0.931877 53.7657 0.9067 53.6703 0.881524 53.5748C0.856708 53.4794 0.832251 53.3836 0.808514 53.2878C0.785136 53.1927 0.761398 53.0972 0.73874 53.0018C0.716081 52.9063 0.693782 52.8105 0.672562 52.7151C0.650983 52.6196 0.629763 52.5238 0.609622 52.4287C0.589122 52.3333 0.568981 52.2375 0.549559 52.142C0.529778 52.0466 0.511075 51.9511 0.492733 51.8557C0.47439 51.7602 0.456407 51.6644 0.439144 51.569C0.42224 51.4735 0.405336 51.3781 0.388791 51.2826C0.372607 51.1872 0.356782 51.0914 0.341676 50.9963C0.326211 50.9012 0.311824 50.805 0.297798 50.7096C0.283771 50.6141 0.270104 50.519 0.256797 50.4232C0.243849 50.3281 0.231261 50.2327 0.219032 50.1372C0.207164 50.0418 0.195655 49.9464 0.184145 49.8509C0.173356 49.7555 0.162206 49.6596 0.152495 49.5646C0.142425 49.4695 0.133074 49.3733 0.124082 49.2786C0.114731 49.1824 0.106099 49.0873 0.0981869 48.9922C0.0899148 48.8964 0.0827216 48.801 0.0751687 48.7059C0.0683352 48.6101 0.0618614 48.5146 0.0557472 48.4199C0.0499926 48.3237 0.0442381 48.2286 0.0392028 48.1335C0.0345273 48.0377 0.0298517 47.9423 0.0258955 47.8472C0.0212199 47.7514 0.017983 47.6559 0.0151057 47.5612C0.0115091 47.4658 0.00935114 47.37 0.00683352 47.2749C0.00539489 47.1794 0.00359659 47.0843 0.00251761 46.9885C0.00107898 46.8934 0.000719318 46.798 0.000719318 46.7025L0 46.6633C0 46.5812 0.000719318 46.499 0.0017983 46.4166C0.00287727 46.3215 0.00467557 46.226 0.00683352 46.1306C0.00935114 46.0351 0.0125881 45.9397 0.0161847 45.8442C0.0194216 45.7495 0.0237375 45.6537 0.0287727 45.5586C0.0334483 45.4632 0.0384835 45.3681 0.0449574 45.2723C0.0503523 45.1772 0.0568261 45.0817 0.0636597 44.9863C0.0712125 44.8915 0.0787653 44.7961 0.0866778 44.7006C0.0945903 44.6052 0.103222 44.5098 0.112573 44.4147C0.121565 44.3196 0.130916 44.2241 0.140986 44.1287C0.151416 44.0332 0.161847 43.9378 0.173356 43.8431C0.184145 43.7476 0.195655 43.6522 0.207523 43.5567C0.219752 43.462 0.23234 43.3665 0.245647 43.2711C0.258595 43.1756 0.271902 43.0805 0.285569 42.9855C0.299956 42.89 0.314342 42.7949 0.329088 42.6991C0.343474 42.6044 0.35894 42.5089 0.374405 42.4135C0.38987 42.3188 0.406774 42.2229 0.423319 42.1279C0.439144 42.0324 0.456407 41.9373 0.473671 41.8422C0.490935 41.7468 0.508558 41.6517 0.5269 41.5566C0.545243 41.4612 0.563586 41.3661 0.582648 41.271C0.60171 41.1755 0.621131 41.0801 0.640553 40.9846C0.660694 40.8899 0.680835 40.7945 0.700616 40.699C0.721476 40.6043 0.741977 40.5088 0.763197 40.4134C0.784416 40.3187 0.806356 40.2232 0.827935 40.1278C0.850594 40.033 0.872893 39.9376 0.895191 39.8421C0.91821 39.7474 0.940868 39.652 0.963886 39.5565C0.987624 39.4618 1.011 39.3663 1.0351 39.2713C1.0592 39.1762 1.08365 39.0807 1.10847 38.9853C1.13329 38.8902 1.15846 38.7951 1.18364 38.7C1.20881 38.6046 1.23471 38.5095 1.2606 38.4144C1.28686 38.3189 1.31312 38.2238 1.33973 38.1288C1.36634 38.0333 1.39332 37.9382 1.42029 37.8431C1.44799 37.7477 1.47532 37.6522 1.50337 37.5575C1.53107 37.4628 1.55912 37.3673 1.58789 37.2722C1.61667 37.1772 1.64508 37.0817 1.67457 36.9866L1.71989 36.8379C3.35598 31.5353 6.01386 25.8703 9.04543 20.6127V20.6142C13.1912 13.426 18.0362 6.99997 21.9281 3.30414C22.0137 3.2231 22.0982 3.14313 22.1823 3.06534C22.2866 2.96845 22.3902 2.87372 22.4927 2.78151C22.6006 2.68462 22.7067 2.58953 22.8125 2.49769C22.9239 2.40008 23.034 2.30535 23.1433 2.2135C23.2591 2.11589 23.3742 2.02117 23.4875 1.92968C23.6091 1.83135 23.7292 1.73662 23.8479 1.64586C23.977 1.54717 24.1033 1.45208 24.2288 1.36239C24.3673 1.26262 24.5025 1.16825 24.637 1.07893C24.7888 0.978077 24.937 0.883349 25.083 0.796185C25.2563 0.691732 25.4257 0.597004 25.5901 0.513442C26.2346 0.183514 26.8093 0.00918579 27.2988 0.00918579C27.7808 0.00918579 28.3534 0.191798 29.0007 0.535773C29.1637 0.622577 29.3302 0.719106 29.5021 0.82572C29.6463 0.915045 29.7931 1.01157 29.9434 1.11459C30.0765 1.20607 30.211 1.30188 30.348 1.40309C30.4725 1.49566 30.598 1.59147 30.726 1.6916C30.8436 1.78489 30.963 1.88142 31.0835 1.98011C31.1965 2.07375 31.3108 2.16992 31.4259 2.26897C31.5349 2.36226 31.6442 2.45879 31.7554 2.55748C31.8604 2.65077 31.9665 2.74729 32.0737 2.84526C32.1758 2.93963 32.279 3.0358 32.3826 3.13377C32.4423 3.18996 32.5017 3.24687 32.5621 3.3045C36.4932 7.07849 41.4137 13.7123 45.6335 21.0644L45.9864 21.7322L46.0687 21.9032C44.738 23.9999 41.1155 26.2791 39.0683 27.4339L39.0313 27.458C38.9356 26.7495 38.9137 26.3076 38.6594 25.6394C36.9161 21.0608 32.921 18.3137 27.2978 18.4412C20.9775 18.2971 16.3796 22.8974 15.5178 28.6405C15.4121 29.3425 15.3668 30.0034 15.3808 30.6614C15.3484 33.8257 16.3015 36.4006 18.644 40.6147V40.6155C14.8924 44.2248 12.6424 49.5307 12.6424 55.0649C12.6424 60.0034 13.921 63.8775 15.9789 66.8043C17.9376 69.4528 19.3047 70.7563 22.0259 72.2319C22.0759 72.2589 22.1262 72.2845 22.1762 72.3112C22.2266 72.3375 22.2766 72.3645 22.3269 72.3908C22.3769 72.416 22.428 72.4408 22.4783 72.466C22.5283 72.4913 22.5787 72.5165 22.629 72.5413C22.6797 72.5655 22.7301 72.5889 22.7804 72.6126C22.8312 72.6368 22.8815 72.6602 22.9326 72.684C22.9829 72.7066 23.0333 72.729 23.0844 72.7517C23.1351 72.774 23.1854 72.7963 23.2365 72.8183C23.2868 72.8399 23.3379 72.8612 23.389 72.8824C23.4393 72.9037 23.4904 72.9246 23.5415 72.9451C23.5918 72.9656 23.6429 72.9865 23.694 73.0067C23.7443 73.0261 23.7961 73.0456 23.8472 73.0647C23.8983 73.0841 23.9486 73.1036 24 73.1227C24.0511 73.141 24.1022 73.1587 24.1533 73.1767C24.2043 73.1951 24.2554 73.2134 24.3068 73.2311C24.3579 73.2484 24.4097 73.2646 24.4608 73.2811C24.5122 73.2984 24.5633 73.315 24.6151 73.3316C24.6658 73.3478 24.7176 73.3633 24.769 73.3787C24.8208 73.3942 24.8719 73.4097 24.9233 73.4245C24.9751 73.4396 25.0265 73.4544 25.0783 73.4688C25.1294 73.4832 25.1808 73.4969 25.233 73.5113C25.2847 73.5253 25.3362 73.539 25.388 73.5527C25.4394 73.5653 25.4912 73.5776 25.5433 73.5905C25.5948 73.6028 25.6466 73.6165 25.698 73.6287C25.7501 73.6399 25.8019 73.651 25.8541 73.6626C25.9055 73.6737 25.9577 73.686 26.0102 73.6964C26.0616 73.7072 26.1138 73.718 26.1659 73.7278C26.2177 73.7382 26.2699 73.7487 26.322 73.7577C26.3742 73.7674 26.4256 73.7778 26.4785 73.7872C26.5302 73.7958 26.5828 73.8041 26.6349 73.8128C26.6871 73.8211 26.7389 73.8308 26.7917 73.8387C26.8439 73.8466 26.8964 73.8531 26.9485 73.8607C27.001 73.8679 27.0532 73.8754 27.1057 73.8823C27.1269 73.8852 27.1478 73.8888 27.169 73.8909L27.2629 73.9025C27.3157 73.9089 27.3683 73.9151 27.4208 73.9208C27.4733 73.9266 27.5261 73.9324 27.5783 73.9374C27.6312 73.9428 27.6837 73.9471 27.7358 73.9518C27.7887 73.9572 27.8419 73.9612 27.8941 73.9651C27.9469 73.9698 27.9998 73.9731 28.0523 73.977C28.1052 73.9806 28.1584 73.9835 28.2109 73.9871L28.3055 73.9914C27.9732 74.0037 27.6391 74.0098 27.3039 74.0098C26.0702 74.0098 24.8568 73.9277 23.667 73.7692C23.0671 73.6892 22.4737 73.5895 21.8867 73.4713C21.4504 73.3827 21.0178 73.2847 20.589 73.1763C20.2312 73.0856 19.8758 72.9876 19.5241 72.8835C19.2144 72.7909 18.9066 72.6933 18.6019 72.5907C18.3253 72.4977 18.0506 72.4009 17.7787 72.2993C17.5276 72.2056 17.2795 72.1087 17.032 72.0079C16.8018 71.9142 16.572 71.8174 16.3447 71.7179C16.1307 71.6236 15.9185 71.5267 15.7074 71.4276C15.5063 71.3329 15.3078 71.2357 15.1096 71.1373C14.9208 71.0426 14.7338 70.9461 14.5475 70.8477C14.3684 70.7527 14.1918 70.6558 14.0148 70.5578C13.8454 70.4627 13.6771 70.3662 13.5095 70.2682C13.348 70.1728 13.1876 70.077 13.0283 69.979C12.874 69.8839 12.7215 69.7874 12.5694 69.6894C12.4215 69.5947 12.2752 69.4981 12.1295 69.4009C11.9878 69.3054 11.8465 69.2093 11.7065 69.1117C11.5706 69.0166 11.4357 68.9201 11.3016 68.8232C11.1703 68.7281 11.0405 68.6315 10.9106 68.5343C10.784 68.4388 10.6589 68.343 10.5344 68.2458C10.4121 68.1503 10.2916 68.0538 10.1712 67.9573C10.0532 67.8618 9.93666 67.766 9.82013 67.6688C9.70612 67.5733 9.59355 67.4775 9.48097 67.3803C9.3702 67.2848 9.26122 67.189 9.1526 67.0921C9.04722 66.9981 8.94328 66.9037 8.83934 66.8087C5.70311 63.9225 3.24341 60.3113 1.72457 56.2398L1.69759 56.1667L1.69292 56.1548Z" fill="url(#paint1_linear)"/>
<path fill-rule="evenodd" clip-rule="evenodd" d="M38.0797 27.8227C36.3587 29.2411 23.0366 35.8522 19.5134 39.8186C17.3745 35.9704 16.3865 33.4938 16.4153 30.6044C16.4027 30.0029 16.4441 29.3999 16.5404 28.7588C17.3274 23.5164 21.5246 19.3159 27.295 19.4477C33.065 19.3155 37.2629 22.3684 38.0499 27.6109C38.0606 27.6819 38.0704 27.7521 38.0797 27.822V27.8227Z" fill="#FEFEFE"/>
<path fill-rule="evenodd" clip-rule="evenodd" d="M24.0058 39.3677C27.6851 36.6321 32.8768 33.5086 35.8875 31.6965C36.7978 31.1375 37.6142 30.6325 38.2929 30.2L38.304 30.1891L38.3048 30.1924C38.6641 29.964 38.9845 29.7544 39.2579 29.57L39.5262 29.387L39.6301 29.9392C40.3037 33.5169 38.1943 38.5522 36.5762 41.6808C35.0919 44.4747 31.3177 51.9103 27.6923 51.8844C24.4579 51.8617 21.0303 45.7498 19.7471 43.1575C21.3788 41.4683 22.0237 40.8174 24.0054 39.368L24.0058 39.3677Z" fill="#086330"/>
<path fill-rule="evenodd" clip-rule="evenodd" d="M80.1791 32.3679L76.4624 24.2313L72.4173 32.3679H80.1791ZM66.0366 40.7356C64.9842 40.1424 64.3261 38.9567 64.9842 37.5732L74.4235 19.0933C75.3115 17.3468 77.6795 17.2809 78.5017 19.0933L87.7765 37.5732C89.1253 40.1428 85.1453 42.1854 83.9613 39.6158L82.5144 36.7171H70.378L68.9635 39.6158C68.4373 40.7356 67.2202 40.9665 66.0366 40.7356Z" fill="#086330"/>
<path fill-rule="evenodd" clip-rule="evenodd" d="M115.104 38.1993C112.769 40.1424 109.907 40.9662 107.013 40.9662C100.107 40.9662 95.2061 37.0135 95.2061 29.1727C95.2061 22.5183 100.37 17.3468 107.31 17.3468C109.908 17.3465 112.77 18.2361 114.809 20.2456C116.815 22.2219 113.921 25.1538 111.947 23.4076C110.73 22.2219 109.02 21.3326 107.31 21.3326C103.33 21.3326 99.482 24.5274 99.482 29.1727C99.482 34.0478 102.705 37.0132 107.014 37.0132C109.02 37.0132 110.73 36.42 111.947 35.5307V31.479H107.014C104.086 31.479 104.382 27.4601 107.014 27.4601H113.592C114.809 27.4601 115.927 28.3825 115.927 29.4036V36.4203C115.927 37.0135 115.664 37.5729 115.105 38.1993H115.104Z" fill="#086330"/>
<path fill-rule="evenodd" clip-rule="evenodd" d="M130.005 28.8432H136.353C140.629 28.8432 140.892 21.9258 136.353 21.9258H130.005V28.8432ZM130.005 38.5944C130.005 41.46 125.631 41.5587 125.631 38.6603V19.9488C125.631 18.7962 126.519 17.9393 127.604 17.9393H136.353C144.707 17.9393 146.417 29.1396 139.444 31.9396L143.818 37.2765C145.529 39.8125 142.108 42.2502 140.135 39.747L135.169 32.6312H130.005V38.5944Z" fill="#086330"/>
<path fill-rule="evenodd" clip-rule="evenodd" d="M164.009 21.3982C160.325 21.3982 156.313 24.0009 156.313 29.2055C156.313 34.3777 160.325 37.0132 164.009 37.0132C167.792 37.0132 171.837 34.3774 171.837 29.2055C171.837 24.0009 167.792 21.3982 164.009 21.3982ZM164.371 41.0649C158.287 41.3278 151.972 37.2765 151.972 29.2055C151.972 21.1021 158.287 17.116 164.371 17.116C170.127 17.4124 176.145 21.3982 176.145 29.2055C176.145 37.0132 170.127 41.0649 164.371 41.0649Z" fill="#086330"/>
<path fill-rule="evenodd" clip-rule="evenodd" d="M185.092 19.9163C185.092 18.8293 186.013 17.9065 187.164 17.9065C188.216 17.9065 189.105 18.8293 189.105 19.9163V36.4203H198.05C201.274 36.4203 201.339 40.7356 198.05 40.7356H187.164C186.013 40.7356 185.092 39.9122 185.092 38.7262V19.9163H185.092Z" fill="#086330"/>
<path fill-rule="evenodd" clip-rule="evenodd" d="M209.035 19.9164C209.035 17.2154 213.376 17.1164 213.376 19.9164V38.7262C213.376 41.4604 209.035 41.5263 209.035 38.7262V19.9164Z" fill="#086330"/>
<path fill-rule="evenodd" clip-rule="evenodd" d="M227.451 22.2219V27.4597H235.838C237.021 27.4597 238.206 28.6458 238.206 29.7984C238.206 30.8854 237.021 31.7747 235.838 31.7747H227.451V38.6924C227.451 39.8453 226.628 40.735 225.478 40.735C224.031 40.735 223.143 39.8453 223.143 38.6924V19.9816C223.143 18.7959 224.031 17.939 225.478 17.939H237.021C238.469 17.939 239.324 18.7959 239.324 19.9816C239.324 21.0355 238.469 22.2216 237.021 22.2216H227.451V22.2219Z" fill="#086330"/>
<path fill-rule="evenodd" clip-rule="evenodd" d="M249.914 40.7356C248.763 40.7356 247.875 39.846 247.875 38.693V19.9823C247.875 18.7966 248.763 17.9397 249.914 17.9397H261.721C264.747 17.9397 264.681 22.2223 261.721 22.2223H252.249V27.1632H260.537C263.465 27.1632 263.464 31.4793 260.537 31.4793H252.249V36.4207H262.28C265.273 36.4207 265.504 40.736 262.28 40.736H249.914V40.7356Z" fill="#086330"/>
<path fill-rule="evenodd" clip-rule="evenodd" d="M271.804 14.6224C273.569 14.6224 275 16.0556 275 17.8234C275 19.5912 273.569 21.0243 271.804 21.0243C270.039 21.0243 268.608 19.5908 268.608 17.8234C268.608 16.0552 270.039 14.6224 271.804 14.6224ZM271.804 15.2556C273.22 15.2556 274.368 16.4053 274.368 17.8234C274.368 19.2414 273.22 20.3911 271.804 20.3911C270.388 20.3911 269.241 19.2414 269.241 17.8234C269.241 16.4053 270.388 15.2556 271.804 15.2556Z" fill="#086330"/>
<path fill-rule="evenodd" clip-rule="evenodd" d="M273.976 20.3504C273.976 20.3695 273.956 20.3796 273.919 20.3796C273.874 20.3796 273.804 20.3756 273.712 20.3681C273.619 20.3605 273.55 20.3569 273.505 20.3569C273.455 20.3569 273.381 20.3605 273.282 20.3681C273.183 20.3756 273.109 20.3796 273.059 20.3796C273.004 20.3796 272.963 20.3479 272.933 20.2863C272.857 20.1185 272.639 19.6009 272.278 18.7325C272.243 18.6432 272.156 18.5888 272.019 18.5686C271.989 18.5661 271.88 18.5647 271.696 18.5647C271.369 18.5647 271.175 18.5701 271.113 18.5801C271.063 18.5877 271.038 18.6493 271.038 18.7678C271.038 18.9407 271.045 19.1989 271.06 19.5429C271.075 19.8854 271.082 20.143 271.082 20.3126C271.082 20.3645 271.059 20.3911 271.011 20.3911C270.964 20.3911 270.892 20.3847 270.796 20.3746C270.7 20.3634 270.626 20.3569 270.577 20.3569C270.536 20.3569 270.475 20.3605 270.391 20.3681C270.308 20.3756 270.246 20.3796 270.206 20.3796C270.147 20.3796 270.117 20.3519 270.117 20.295C270.117 20.022 270.129 19.611 270.154 19.0628C270.178 18.5146 270.19 18.1036 270.19 17.8302C270.19 17.0526 270.162 16.2224 270.106 15.3414L270.103 15.2823C270.1 15.233 270.15 15.2077 270.252 15.2077C270.457 15.2077 270.764 15.2027 271.172 15.1912C271.58 15.18 271.886 15.175 272.088 15.175C272.617 15.175 273.041 15.3046 273.36 15.5654C273.713 15.8539 273.889 16.2624 273.889 16.7918C273.889 17.1571 273.842 17.443 273.747 17.6537C273.647 17.8742 273.461 18.0845 273.191 18.2848C273.146 18.3165 273.124 18.3478 273.124 18.377C273.124 18.4109 273.265 18.7386 273.55 19.3599C273.834 19.9802 273.977 20.3101 273.977 20.3504H273.976ZM272.996 17.0011C272.996 16.5548 272.872 16.2577 272.625 16.1075C272.442 15.9965 272.112 15.9411 271.637 15.9411C271.25 15.9411 271.054 15.9724 271.048 16.0369C271.031 16.1705 271.023 16.526 271.023 17.1041V17.8097C271.03 17.8148 271.046 17.8198 271.069 17.8248C271.111 17.8299 271.182 17.8349 271.279 17.8425C271.505 17.8551 271.749 17.8616 272.011 17.8616C272.668 17.8616 272.996 17.5741 272.996 17.0007L272.996 17.0011Z" fill="#086330"/>
<path d="M73.3647 52.1063C73.3647 51.2181 72.8597 51.2181 72.1925 51.2181H71.9221C71.6336 51.2181 71.3628 51.2361 70.9118 51.781L67.1422 56.2848V52.1063C67.1422 51.3085 66.6369 51.2181 65.9697 51.2181H65.6992C65.0501 51.2181 64.5811 51.3085 64.5811 52.1063V59.3798C64.5811 60.1953 65.0864 60.2677 65.7535 60.2677H66.0236C66.2945 60.2677 66.5649 60.2677 67.0339 59.7047L70.8039 55.201V59.3798C70.8039 60.1953 71.3092 60.2677 71.9764 60.2677H72.2465C72.896 60.2677 73.3647 60.1953 73.3647 59.3798V52.1063ZM82.2748 60.2677H82.5453C83.1945 60.2677 83.6635 60.304 83.6635 59.3827V52.1452C83.6635 51.1817 83.2125 51.2177 82.5273 51.2177H82.2569C81.6077 51.2177 81.1027 51.1997 81.1027 52.1452V54.7043H77.3687V52.1452C77.3687 51.1817 76.9181 51.2177 76.2326 51.2177H75.9621C75.3133 51.2177 74.808 51.1997 74.808 52.1452V59.3827C74.808 60.3221 75.3133 60.2677 75.9805 60.2677H76.2506C76.8997 60.2677 77.3687 60.304 77.3687 59.3827V56.7091H81.1027V59.3827C81.1027 60.3221 81.6077 60.2677 82.2748 60.2677ZM85.5938 51.3265C84.8903 51.3265 84.5655 51.4713 84.5655 52.0854V52.5731C84.5655 53.2052 84.8899 53.3136 85.5938 53.3136H87.7039V59.3107C87.7039 60.25 88.2092 60.1956 88.8764 60.1956H89.1469C89.796 60.1956 90.265 60.232 90.265 59.3107V53.3136H92.2489C92.9524 53.3136 93.2592 53.2052 93.3491 52.5731L93.4034 52.0854C93.4753 51.4709 93.1869 51.3265 92.4834 51.3265H85.5934H85.5938ZM96.2354 56.4025H102.296C102.765 56.4025 102.891 56.3301 102.909 55.8785V55.3908C102.909 52.9163 101.105 51.0736 98.4901 51.0736C95.8207 51.0736 93.7825 53.0784 93.7825 55.7881C93.7825 58.5878 95.7844 60.3761 98.6523 60.3761C101.123 60.3761 102.494 59.3107 102.494 58.3713C102.494 57.2695 101.628 57.1971 101.286 57.486C100.726 57.9557 99.933 58.4797 98.7425 58.4797C97.3715 58.4797 96.4159 57.7212 96.2354 56.4025ZM96.2354 54.9035C96.3979 53.7113 97.2636 52.8623 98.4541 52.8623C99.6985 52.8623 100.474 53.6752 100.528 54.9035H96.2354ZM106.643 58.8233C107.112 59.7083 108.14 60.4308 109.474 60.4308C111.927 60.4308 113.623 58.5345 113.623 55.7704C113.623 52.9343 111.91 51.128 109.511 51.128C108.176 51.128 107.184 51.7782 106.607 52.7899C106.462 51.5286 105.723 51.2184 105.056 51.2184C104.55 51.2184 104.081 51.3632 104.081 51.7454V62.8513C104.081 63.6638 104.569 63.7546 105.254 63.7546H105.524C106.173 63.7546 106.642 63.6638 106.642 62.8513V58.8233H106.643ZM106.643 55.6562C106.643 54.0729 107.815 53.1876 108.88 53.1876C110.214 53.1876 111.152 54.235 111.152 55.8072C111.152 57.3423 110.232 58.408 108.862 58.408C107.635 58.408 106.643 57.2522 106.643 56.006V55.6566L106.643 55.6562ZM122.262 60.2684H122.533C123.182 60.2684 123.651 60.3048 123.651 59.3834V52.1459C123.651 51.1824 123.2 51.2184 122.515 51.2184H122.244C121.595 51.2184 121.09 51.2004 121.09 52.1459V54.705H117.357V52.1459C117.357 51.1824 116.906 51.2184 116.221 51.2184H115.95C115.301 51.2184 114.796 51.2004 114.796 52.1459V59.3834C114.796 60.3228 115.301 60.2684 115.968 60.2684H116.239C116.888 60.2684 117.357 60.3048 117.357 59.3834V56.7098H121.09V59.3834C121.09 60.3228 121.595 60.2684 122.262 60.2684ZM127.187 56.4029H133.247C133.716 56.4029 133.842 56.3305 133.86 55.8788V55.3911C133.86 52.9167 132.056 51.074 129.441 51.074C126.772 51.074 124.734 53.0788 124.734 55.7884C124.734 58.5881 126.736 60.3764 129.603 60.3764C132.075 60.3764 133.445 59.311 133.445 58.3717C133.445 57.2699 132.58 57.1975 132.237 57.4863C131.678 57.956 130.884 58.4801 129.694 58.4801C128.323 58.4801 127.367 57.7215 127.187 56.4029ZM127.187 54.9038C127.349 53.7116 128.215 52.8627 129.405 52.8627C130.65 52.8627 131.425 53.6756 131.479 54.9038H127.187ZM135.52 51.3272C134.816 51.3272 134.492 51.472 134.492 52.0861V52.5738C134.492 53.2059 134.816 53.3143 135.52 53.3143H137.63V59.3114C137.63 60.2507 138.135 60.1964 138.802 60.1964H139.073C139.722 60.1964 140.191 60.2327 140.191 59.3114V53.3143H142.175C142.878 53.3143 143.185 53.2059 143.275 52.5738L143.329 52.0861C143.401 51.4716 143.113 51.3272 142.409 51.3272H135.519H135.52ZM147.929 56.6197H151.987C152.51 56.6197 152.763 56.5293 152.763 56.114V55.4996C152.763 55.0843 152.51 54.9755 151.987 54.9755H147.929C147.424 54.9755 147.154 55.0843 147.154 55.4996V56.114C147.154 56.5293 147.424 56.6197 147.929 56.6197ZM161.745 60.3768C164.397 60.3768 165.515 58.8417 165.515 57.9928C165.515 56.8729 164.235 56.4757 164.019 57.0354C163.712 57.8119 162.972 58.336 161.854 58.336C160.465 58.336 159.437 57.2342 159.437 55.7344C159.437 54.2177 160.465 53.1515 161.854 53.1515C163.026 53.1515 163.694 53.6572 164.019 54.4341C164.199 54.8858 165.515 54.5426 165.515 53.4948C165.515 52.6638 164.451 51.0924 161.745 51.0924C159.04 51.0924 157.02 53.0247 157.02 55.7344C157.02 58.4621 159.004 60.3768 161.745 60.3768ZM169.772 59.6878H170.006L169.664 60.612C169.068 62.1111 168.618 61.8042 167.499 61.6418C167.03 61.5694 166.832 62.003 166.832 62.3463C166.832 63.1228 167.445 63.9174 168.744 63.9174C170.115 63.9174 171.143 63.0865 171.828 61.2981L175.31 52.1434C175.472 51.7097 175.111 51.2188 174.335 51.2188C173.524 51.2188 173.127 51.5109 172.748 52.5043L170.8 57.6074L168.78 52.3238C168.474 51.5113 167.969 51.2192 167.247 51.2192C166.472 51.2192 165.876 51.7101 166.111 52.2522L169.087 59.1821C169.249 59.5613 169.358 59.6881 169.772 59.6881L169.772 59.6878ZM183.534 60.2687H183.805C184.454 60.2687 184.923 60.3051 184.923 59.3838V52.2486C184.923 51.2912 184.472 51.3272 183.787 51.3272H177.33C176.681 51.3272 176.175 51.3092 176.175 52.2486V59.3838C176.175 60.3231 176.681 60.2687 177.348 60.2687H177.618C178.267 60.2687 178.736 60.3051 178.736 59.3838V53.3147H182.362V59.3838C182.362 60.3231 182.867 60.2687 183.534 60.2687H183.534ZM188.458 56.4033H194.519C194.988 56.4033 195.114 56.3309 195.132 55.8792V55.3915C195.132 52.9171 193.328 51.0744 190.713 51.0744C188.044 51.0744 186.005 53.0791 186.005 55.7888C186.005 58.5885 188.007 60.3768 190.875 60.3768C193.346 60.3768 194.717 59.3114 194.717 58.372C194.717 57.2702 193.852 57.1978 193.509 57.4867C192.949 57.9564 192.156 58.4804 190.966 58.4804C189.595 58.4804 188.639 57.7219 188.458 56.4033ZM188.458 54.9042C188.621 53.712 189.487 52.863 190.677 52.863C191.922 52.863 192.697 53.676 192.751 54.9042H188.458ZM198.866 58.8241C199.335 59.709 200.363 60.4316 201.697 60.4316C204.15 60.4316 205.846 58.5352 205.846 55.7711C205.846 52.9351 204.132 51.1287 201.734 51.1287C200.399 51.1287 199.407 51.7789 198.83 52.7906C198.685 51.5293 197.946 51.2192 197.279 51.2192C196.773 51.2192 196.304 51.3639 196.304 51.7461V62.852C196.304 63.6645 196.792 63.7553 197.477 63.7553H197.747C198.397 63.7553 198.866 63.6645 198.866 62.852V58.8241H198.866ZM198.866 55.657C198.866 54.0736 200.038 53.1883 201.103 53.1883C202.437 53.1883 203.375 54.2357 203.375 55.8079C203.375 57.343 202.455 58.4088 201.085 58.4088C199.858 58.4088 198.866 57.2529 198.866 56.0067V55.6573L198.866 55.657ZM209.525 51.3276H208.173C207.524 51.3276 207.018 51.3096 207.018 52.2489V59.3841C207.018 60.3235 207.524 60.2691 208.191 60.2691H208.461C209.11 60.2691 209.489 60.3055 209.489 59.3841V53.7484L210.824 57.6322C211.095 58.2643 211.473 58.3003 212.177 58.3003C212.862 58.3003 213.259 58.2643 213.512 57.6322L214.847 53.7484V59.3841C214.847 60.3055 215.225 60.2691 215.875 60.2691H216.145C216.812 60.2691 217.318 60.3235 217.318 59.3841V52.2489C217.318 51.3096 216.812 51.3276 216.164 51.3276H214.991C214.252 51.3276 213.909 51.3639 213.62 51.9961L212.159 55.7348L210.897 51.9961C210.626 51.3639 210.266 51.3276 209.526 51.3276H209.525ZM226.047 60.2868C226.552 60.2868 227.003 60.0879 227.003 59.6186V54.4885C227.003 52.357 225.614 51.0747 222.819 51.0747C220.492 51.0747 218.869 52.1581 218.869 53.2783C218.869 54.0552 219.825 54.8318 220.456 54.1273C220.925 53.6216 221.556 53.0078 222.657 53.0078C223.847 53.0078 224.479 53.6219 224.479 54.7597H224.19C220.312 54.8141 218.49 55.7535 218.49 57.7763C218.49 59.2937 219.608 60.3415 221.467 60.3415C222.784 60.3415 223.901 59.7814 224.533 58.8604V59.0769C224.533 59.9982 225.164 60.2871 226.048 60.2871L226.047 60.2868ZM222.313 58.6793C221.466 58.6793 220.943 58.264 220.943 57.5958C220.943 56.6381 221.989 56.2408 224.009 56.1864L224.478 56.1684V56.6745C224.478 57.8303 223.595 58.6793 222.313 58.6793ZM230.917 58.8241C231.386 59.709 232.414 60.4316 233.749 60.4316C236.202 60.4316 237.898 58.5352 237.898 55.7711C237.898 52.9351 236.184 51.1287 233.785 51.1287C232.45 51.1287 231.459 51.7789 230.881 52.7906C230.737 51.5293 229.997 51.2192 229.33 51.2192C228.825 51.2192 228.356 51.3639 228.356 51.7461V62.852C228.356 63.6645 228.843 63.7553 229.528 63.7553H229.799C230.448 63.7553 230.917 63.6645 230.917 62.852V58.8241H230.917ZM230.917 55.657C230.917 54.0736 232.09 53.1883 233.154 53.1883C234.489 53.1883 235.427 54.2357 235.427 55.8079C235.427 57.343 234.507 58.4088 233.136 58.4088C231.91 58.4088 230.918 57.2529 230.918 56.0067V55.6573L230.917 55.657ZM241.631 56.0604L244.336 59.5466C244.841 60.1967 245.166 60.2511 246.032 60.2511C247.006 60.2511 247.349 59.4926 247.078 59.1673L244.12 55.5187L246.825 52.1229C247.077 51.798 246.825 51.1655 245.563 51.1655C245.13 51.1655 244.643 51.2015 244.156 51.8156L241.63 55.121V52.2522C241.63 51.3276 241.143 51.2192 240.494 51.2192H240.224C239.538 51.2192 239.069 51.3096 239.069 52.2522V59.2365C239.069 60.1787 239.538 60.2691 240.224 60.2691H240.494C241.143 60.2691 241.63 60.1607 241.63 59.2365V56.0604H241.631ZM249.892 56.4036H255.952C256.421 56.4036 256.548 56.3312 256.566 55.8796V55.3919C256.566 52.9174 254.762 51.0747 252.147 51.0747C249.477 51.0747 247.439 53.0795 247.439 55.7892C247.439 58.5889 249.441 60.3772 252.309 60.3772C254.78 60.3772 256.151 59.3117 256.151 58.3724C256.151 57.2706 255.285 57.1982 254.942 57.4871C254.383 57.9567 253.589 58.4808 252.399 58.4808C251.028 58.4808 250.073 57.7223 249.892 56.4036ZM249.892 54.9045C250.054 53.7123 250.92 52.8634 252.111 52.8634C253.355 52.8634 254.131 53.6763 254.185 54.9045H249.892ZM258.225 51.3279C257.522 51.3279 257.197 51.4727 257.197 52.0868V52.5745C257.197 53.2066 257.522 53.3151 258.225 53.3151H260.336V59.3121C260.336 60.2515 260.841 60.1971 261.508 60.1971H261.778C262.427 60.1971 262.896 60.2334 262.896 59.3121V53.3151H264.881C265.584 53.3151 265.89 53.2066 265.981 52.5745L266.035 52.0868C266.107 51.4724 265.819 51.3279 265.115 51.3279H258.225H258.225Z" fill="#727271"/>
</g>
<defs>
<linearGradient id="paint0_linear" x1="23.6411" y1="58.5503" x2="52.0959" y2="58.5503" gradientUnits="userSpaceOnUse">
<stop stop-color="#26853A"/>
<stop offset="1" stop-color="#FFED00"/>
</linearGradient>
<linearGradient id="paint1_linear" x1="14.3184" y1="67.8892" x2="14.3184" y2="3.29693" gradientUnits="userSpaceOnUse">
<stop stop-color="#F8BF49"/>
<stop offset="1" stop-color="#F4E958"/>
</linearGradient>
<clipPath id="clip0">
<rect width="275" height="74" fill="white"/>
</clipPath>
</defs>
</svg>
