<svg width="30" height="30" viewBox="0 0 30 30"
  xmlns="http://www.w3.org/2000/svg">
  <path d="M27.3311 2.89301C26.9171 2.40622 26.3134 2.12713 25.6748 2.12713H23.5787V1.47147C23.5787 0.660119 22.9185 0 22.1072 0H7.89284C7.08143 0 6.42143 0.660118 6.42143 1.47141V2.12707H4.32512C3.6865 2.12707 3.08275 2.40622 2.66885 2.89296C2.25916 3.37466 2.08209 4.00735 2.18316 4.62874C2.73394 8.01546 4.8653 11.0074 7.8902 12.6486C8.16659 13.3131 8.4796 13.9425 8.82817 14.5289C9.94158 16.4025 11.3257 17.6973 12.8493 18.3235C13.0037 19.8846 11.9649 21.3636 10.4004 21.7161C10.3971 21.7168 10.3947 21.718 10.3915 21.7188C10.0861 21.7917 9.85884 22.0657 9.85884 22.3933V25.5787H8.5706C7.42204 25.5787 6.48764 26.5131 6.48764 27.6616V29.3057C6.48764 29.6892 6.79848 30 7.18198 30H22.8844C23.2679 30 23.5787 29.6892 23.5787 29.3057V27.6616C23.5787 26.5131 22.6443 25.5787 21.4958 25.5787H20.2074V22.3934C20.2074 22.0651 19.9793 21.7907 19.6731 21.7184C19.6703 21.7177 19.6675 21.7168 19.6646 21.7161C18.0883 21.3613 17.0476 19.8674 17.2182 18.2945C18.7152 17.6582 20.0751 16.3749 21.1721 14.5291C21.5207 13.9426 21.8336 13.3131 22.1101 12.6485C25.1348 11.0073 27.266 8.01535 27.8168 4.62874C27.9179 4.00735 27.7408 3.37471 27.3311 2.89301ZM3.55379 4.40579C3.51769 4.1839 3.57904 3.9661 3.72658 3.79255C3.87629 3.61653 4.09438 3.51563 4.32506 3.51563H6.42137V4.7931C6.42137 6.79619 6.67702 8.73646 7.16153 10.5109C5.25746 9.00623 3.94648 6.8205 3.55379 4.40579ZM21.4958 26.9674C21.8786 26.9674 22.1901 27.2789 22.1901 27.6618V28.6114H7.87626V27.6618C7.87626 27.2789 8.18774 26.9674 8.5706 26.9674H21.4958ZM18.8187 23.0877V25.5787H11.2476V23.0877H18.8187ZM13.0686 21.6991C13.2402 21.5102 13.3971 21.3054 13.5374 21.0862C14.0001 20.3632 14.243 19.5419 14.2539 18.703C14.5005 18.7366 14.7494 18.7545 15.0005 18.7545C15.2736 18.7545 15.5441 18.7336 15.8121 18.6938C15.8279 19.8211 16.2667 20.8882 17.0044 21.6991H13.0686V21.6991ZM22.19 4.79315C22.19 8.21381 21.4045 11.4195 19.9782 13.8195C18.6193 16.1064 16.8514 17.3659 15.0003 17.3659C13.1489 17.3659 11.3809 16.1065 10.0218 13.8196C8.59556 11.4195 7.81005 8.21386 7.81005 4.79327V1.47141C7.81005 1.42571 7.8472 1.38862 7.89278 1.38862H22.1071C22.1528 1.38862 22.19 1.42576 22.19 1.47141V4.79315ZM26.4462 4.40579C26.0535 6.82033 24.7426 9.00599 22.8386 10.5107C23.3231 8.73635 23.5787 6.79619 23.5787 4.79315V3.51569H25.6748C25.9055 3.51569 26.1236 3.61665 26.2733 3.7926C26.4208 3.9661 26.4822 4.1839 26.4462 4.40579Z"/>
  <path d="M19.2153 7.12845C19.1336 6.8772 18.9163 6.69403 18.6548 6.65595L16.5596 6.35149L15.6227 4.45293C15.5056 4.21598 15.2643 4.06592 15 4.06592C14.7357 4.06592 14.4944 4.21598 14.3774 4.45293L13.4404 6.35149L11.3452 6.65595C11.0837 6.69391 10.8664 6.87714 10.7847 7.1285C10.7031 7.37993 10.7712 7.65579 10.9605 7.8403L12.4766 9.3181L12.1186 11.4048C12.0739 11.6653 12.181 11.9285 12.3948 12.0839C12.6086 12.2392 12.8921 12.2597 13.126 12.1368L15 11.1516L16.874 12.1368C16.9756 12.1901 17.0865 12.2164 17.1969 12.2164C17.3409 12.2164 17.4842 12.1717 17.6051 12.0839C17.819 11.9285 17.926 11.6653 17.8813 11.4047L17.5234 9.31804L19.0395 7.84025C19.2289 7.65579 19.2969 7.37987 19.2153 7.12845ZM16.2928 8.57847C16.1292 8.73796 16.0545 8.96777 16.0932 9.19306L16.2749 10.253L15.3231 9.75257C15.222 9.69937 15.111 9.67289 15 9.67289C14.889 9.67289 14.778 9.69949 14.6769 9.75257L13.725 10.253L13.9068 9.19306C13.9455 8.96783 13.8708 8.73802 13.7071 8.57847L12.9371 7.82788L14.0013 7.67319C14.2274 7.64038 14.4229 7.49829 14.5241 7.29339L15 6.32905L15.4759 7.29339C15.5771 7.49829 15.7725 7.64032 15.9987 7.67319L17.0629 7.82788L16.2928 8.57847Z"/>
</svg>
