<svg width="64" height="64" viewBox="0 0 64 64"
  xmlns="http://www.w3.org/2000/svg">
  <path fill-rule="evenodd" clip-rule="evenodd" d="M32.1064 11.3871L22.7604 24.7441H41.4525L32.1064 11.3871ZM31.0297 9.42713L20.3123 24.7441H10.5C9.67157 24.7441 9 25.4216 9 26.2574C9 27.0931 9.67157 27.7706 10.5 27.7706L12 27.7706L13.6449 49.3427C13.8453 51.9707 16.0175 54 18.6302 54H46.3698C48.9825 54 51.1547 51.9707 51.3551 49.3427L53 27.7706L53.5 27.7706C54.3284 27.7706 55 27.0931 55 26.2574C55 25.4216 54.3284 24.7441 53.5 24.7441H43.9006L33.1831 9.42713C32.9345 9.07185 32.4998 8.92776 32.1064 9.03442C31.713 8.92776 31.2783 9.07185 31.0297 9.42713ZM18.8347 31.7543C19.3828 31.6864 19.8818 32.0797 19.9491 32.6327L22.0208 49.6549C22.0882 50.2079 21.6983 50.7112 21.1502 50.7791C20.602 50.847 20.1031 50.4538 20.0358 49.9007L17.964 32.8786C17.8967 32.3256 18.2865 31.8222 18.8347 31.7543ZM27.4021 32.6948C27.3636 32.139 26.8857 31.72 26.3348 31.7588C25.7838 31.7977 25.3685 32.2798 25.407 32.8356L26.5928 49.9438C26.6314 50.4996 27.1092 50.9186 27.6602 50.8798C28.2111 50.8409 28.6265 50.3588 28.588 49.803L27.4021 32.6948ZM33.9999 32.8147C33.9999 32.2575 33.5522 31.8059 32.9999 31.8059C32.4477 31.8059 31.9999 32.2575 31.9999 32.8147V49.9647C31.9999 50.5218 32.4477 50.9735 32.9999 50.9735C33.5522 50.9735 33.9999 50.5218 33.9999 49.9647V32.8147ZM40.588 32.9763C40.6266 32.4205 40.2112 31.9384 39.6602 31.8996C39.1093 31.8607 38.6314 32.2798 38.5929 32.8356L37.407 49.9438C37.3685 50.4996 37.7839 50.9817 38.3349 51.0205C38.8858 51.0594 39.3637 50.6403 39.4022 50.0845L40.588 32.9763ZM47.1503 32.0002C47.6985 32.0681 48.0883 32.5715 48.021 33.1245L45.9492 50.1466C45.8819 50.6996 45.383 51.0929 44.8348 51.025C44.2866 50.9571 43.8968 50.4538 43.9641 49.9007L46.0359 32.8786C46.1032 32.3256 46.6022 31.9323 47.1503 32.0002Z"/>
</svg>
