<svg width="21" height="21" viewBox="0 0 21 21"
  xmlns="http://www.w3.org/2000/svg">
  <path fill-rule="evenodd" clip-rule="evenodd" d="M9 5C4.02944 5 0 9.02944 0 14V16.2H12C16.9706 16.2 21 12.1706 21 7.2V5H9ZM16.4298 12.7533C16.8835 12.2721 17.1104 11.569 17.1104 10.6441C17.1104 9.71668 16.8848 9.01361 16.4336 8.53486C15.9824 8.05612 15.3194 7.81675 14.4447 7.81675C13.5724 7.81675 12.9069 8.05863 12.4482 8.54238C11.9921 9.02363 11.764 9.7217 11.764 10.6366C11.764 11.5615 11.9933 12.2658 12.452 12.7496C12.9132 13.2333 13.5749 13.4752 14.4372 13.4752C15.3119 13.4752 15.9762 13.2346 16.4298 12.7533ZM14.4372 12.2382C13.6977 12.2382 13.328 11.7069 13.328 10.6441C13.328 9.57131 13.7002 9.03491 14.4447 9.03491C14.8106 9.03491 15.0851 9.1665 15.2681 9.42969C15.4535 9.69036 15.5463 10.0952 15.5463 10.6441C15.5463 11.1905 15.4548 11.5928 15.2718 11.851C15.0914 12.1091 14.8131 12.2382 14.4372 12.2382ZM4.09404 7.90322H6.01152C6.75846 7.90322 7.3124 8.01476 7.67334 8.23784C8.03678 8.45841 8.21851 8.80306 8.21851 9.27178C8.21851 9.58008 8.13955 9.84326 7.98164 10.0613C7.82373 10.2794 7.61569 10.4198 7.35752 10.4824V10.52C7.6984 10.6103 7.9453 10.7606 8.09819 10.9712C8.25109 11.1817 8.32754 11.4549 8.32754 11.7908C8.32754 12.2896 8.13955 12.6831 7.76357 12.9714C7.3901 13.2571 6.88003 13.4 6.23335 13.4H4.09404V7.90322ZM5.57915 10.0125H6.02656C6.23962 10.0125 6.40379 9.96859 6.51909 9.88086C6.6369 9.79313 6.6958 9.66279 6.6958 9.48984C6.6958 9.18154 6.4627 9.02739 5.99648 9.02739H5.57915V10.0125ZM5.57915 11.099V12.2533H6.10176C6.56546 12.2533 6.79731 12.0578 6.79731 11.6667C6.79731 11.4838 6.73465 11.3434 6.60933 11.2457C6.48651 11.1479 6.30729 11.099 6.07168 11.099H5.57915ZM9.28252 13.4V7.90322H10.7751V13.4H9.28252Z"/>
</svg>
