<svg width="21" height="21" viewBox="0 0 21 21"
  xmlns="http://www.w3.org/2000/svg">
  <g clip-path="url(#clip0)">
    <path d="M20.7845 3.47955L17.5216 0.216637C17.2341 -0.0709238 16.7678 -0.0708828 16.4802 0.216596L15.2305 1.46626C14.2867 2.41007 14.0944 3.82425 14.6519 4.96075L6.26597 13.3466L4.69113 11.7718C4.51058 11.5913 4.21789 11.5913 4.0373 11.7718L1.42522 14.3838C0.26001 15.5491 -0.236156 17.225 0.106817 18.8367L0.388881 20.1622C0.43691 20.3878 0.613196 20.5641 0.838905 20.6121L2.16432 20.8942C3.77616 21.2373 5.45205 20.741 6.61731 19.5758L9.22939 16.9637C9.40994 16.7832 9.4099 16.4904 9.22939 16.3099L7.65455 14.735L16.0393 6.35028C17.1583 6.90173 18.5749 6.73049 19.5349 5.77048L20.7846 4.52082C21.072 4.2333 21.072 3.76711 20.7845 3.47955ZM18.4935 4.72922C17.88 5.34273 16.8866 5.34343 16.2724 4.72971C16.2722 4.72954 16.2721 4.72938 16.2719 4.72922C16.2718 4.72905 16.2716 4.72893 16.2714 4.72877C15.6594 4.11624 15.6596 3.11997 16.2719 2.50769L17.0009 1.77872L19.2224 4.00029L18.4935 4.72922Z"/>
  </g>
  <defs>
    <clipPath id="clip0">
      <rect width="21" height="21" fill="white"/>
    </clipPath>
  </defs>
</svg>
