<svg width="21" height="21" viewBox="0 0 21 21"
  xmlns="http://www.w3.org/2000/svg">
  <path d="M18.7374 6.5899H17.3448L12.7459 1.99102C12.6112 0.871101 11.6556 0 10.5 0C9.34435 0 8.38898 0.871101 8.25423 1.99102L3.65536 6.5899H2.26275C1.01498 6.5899 0 7.60487 0 8.85265V18.7374C0 19.985 1.01498 21 2.26275 21H18.7374C19.985 21 21 19.985 21 18.7374V8.85265C21 7.60487 19.985 6.5899 18.7374 6.5899ZM8.55977 3.42545C8.95599 4.08394 9.67728 4.5255 10.5 4.5255C11.3227 4.5255 12.0442 4.08394 12.4402 3.42545L15.6045 6.5899H5.39548L8.55977 3.42545ZM5.19857 16.2531C4.33532 16.2531 3.67619 15.8181 3.67619 15.436C3.67619 15.2514 3.84762 14.9745 4.0519 14.9745C4.32202 14.9745 4.50002 15.4821 5.17213 15.4821C5.56771 15.4821 5.91026 15.3041 5.91026 14.9087C5.91026 13.9202 3.79475 14.2233 3.79475 12.6613C3.79475 11.6795 4.63845 11.3434 5.39628 11.3434C5.78513 11.3434 6.64838 11.4355 6.64838 11.8707C6.64838 12.0222 6.54295 12.3254 6.30567 12.3254C6.10139 12.3254 5.94983 12.0749 5.39628 12.0749C4.92171 12.0749 4.65143 12.2661 4.65143 12.5823C4.65143 13.3996 6.7671 13.1162 6.7671 14.8231C6.7671 15.7655 6.10812 16.2531 5.19857 16.2531ZM10.1475 16.1938C10.0025 16.1938 9.89053 16.1477 9.85753 16.0225L9.60711 15.146H8.09786L7.8476 16.0225C7.8146 16.1477 7.70245 16.1938 7.55761 16.1938C7.3269 16.1938 7.0172 16.0488 7.0172 15.838C7.0172 15.8247 7.02377 15.7984 7.03033 15.7719L8.3023 11.6268C8.36158 11.4291 8.60543 11.3368 8.84912 11.3368C9.0997 11.3368 9.34355 11.4291 9.40283 11.6268L10.6748 15.7719C10.6814 15.7984 10.6879 15.8181 10.6879 15.838C10.6879 16.0421 10.3782 16.1938 10.1475 16.1938ZM13.6073 16.1938H11.518C11.3269 16.1938 11.1423 16.1015 11.1423 15.9237V11.6399C11.1423 11.4554 11.3535 11.3762 11.5707 11.3762C11.7817 11.3762 11.999 11.4554 11.999 11.6399V15.4425H13.6071C13.7784 15.4425 13.8641 15.6271 13.8641 15.8181C13.8642 16.0027 13.7785 16.1938 13.6073 16.1938ZM16.1904 13.4456C16.3617 13.4456 16.4606 13.6105 16.4606 13.7885C16.4606 13.9399 16.375 14.1179 16.1904 14.1179H15.1886V15.4425H17.0537C17.2251 15.4425 17.324 15.6204 17.324 15.8247C17.324 16.0027 17.2383 16.1938 17.0537 16.1938H14.7075C14.5163 16.1938 14.3319 16.1015 14.3319 15.9237V11.6465C14.3319 11.4685 14.5163 11.3762 14.7075 11.3762H17.0537C17.2383 11.3762 17.324 11.5674 17.324 11.7454C17.324 11.9496 17.2251 12.1276 17.0537 12.1276H15.1886V13.4456H16.1904Z"/>
  <path d="M8.27588 14.4737H9.42255L8.8493 12.4504L8.27588 14.4737Z"/>
</svg>
