<svg width="21" height="21" viewBox="0 0 21 21"
  xmlns="http://www.w3.org/2000/svg">
  <path d="M15.1917 4.17603C14.7767 4.17603 14.3617 4.33398 14.0457 4.64992C13.7396 4.95601 13.571 5.36301 13.571 5.79591C13.571 6.22881 13.7396 6.63581 14.0457 6.9419C14.3518 7.24803 14.7588 7.41661 15.1917 7.41661C15.6246 7.41661 16.0316 7.24803 16.3377 6.94194C16.9696 6.31006 16.9696 5.28184 16.3377 4.64992C16.0218 4.33398 15.6067 4.17603 15.1917 4.17603Z"/>
  <path d="M10.5032 8.8645C10.0882 8.8645 9.6732 9.02245 9.35721 9.33843C8.72533 9.97032 8.72533 10.9985 9.35721 11.6304C9.66331 11.9365 10.0703 12.1051 10.5032 12.1051C10.9361 12.1051 11.3431 11.9365 11.6492 11.6304C11.9553 11.3243 12.1239 10.9173 12.1239 10.4844C12.1239 10.0515 11.9553 9.64453 11.6492 9.33843C11.3333 9.02249 10.9182 8.8645 10.5032 8.8645Z"/>
  <path d="M14.9158 0.353859C13.5602 0.421242 12.2848 0.987138 11.3244 1.94756C10.4703 2.8017 9.93018 3.89964 9.7724 5.08404C8.588 5.24182 7.4901 5.78187 6.63592 6.63605C5.78178 7.49018 5.2417 8.58812 5.08395 9.77252C3.89955 9.93031 2.80166 10.4704 1.94748 11.3245C0.984922 12.287 0.418862 13.5652 0.353326 14.9237L0 21L6.07635 20.6466C7.43491 20.5811 8.71308 20.015 9.67559 19.0525C10.5297 18.1983 11.0698 17.1004 11.2276 15.916C12.412 15.7582 13.5099 15.2182 14.364 14.364C15.2182 13.5099 15.7583 12.4119 15.916 11.2275C17.1004 11.0697 18.1983 10.5297 19.0525 9.67555C20.0129 8.71517 20.5786 7.44488 20.6454 6.09851L21 0L14.9158 0.353859ZM7.83132 17.1895C7.27536 17.7454 6.54507 18.0234 5.81478 18.0234C5.08449 18.0234 4.35424 17.7454 3.79827 17.1895C3.25963 16.6508 2.96301 15.9346 2.96301 15.1729C2.96301 14.4111 3.25967 13.695 3.79827 13.1564C4.91016 12.0444 6.71939 12.0444 7.83128 13.1564C8.94317 14.2683 8.94317 16.0775 7.83132 17.1895ZM12.5197 12.501C11.9811 13.0396 11.2649 13.3363 10.5032 13.3363C9.7415 13.3363 9.02532 13.0396 8.48672 12.501C7.37483 11.3891 7.37483 9.5799 8.48672 8.46801C9.59869 7.35612 11.4079 7.35608 12.5198 8.46801C13.0584 9.00661 13.355 9.72278 13.355 10.4845C13.355 11.2462 13.0584 11.9624 12.5197 12.501ZM17.2082 7.81253C16.6696 8.35117 15.9534 8.64779 15.1917 8.64779C14.4299 8.64779 13.7138 8.35113 13.1752 7.81253C12.6366 7.27392 12.3399 6.55775 12.3399 5.79602C12.3399 5.0343 12.6366 4.31813 13.1752 3.77952C14.287 2.66763 16.0962 2.66759 17.2082 3.77952C18.3201 4.89145 18.3201 6.70064 17.2082 7.81253Z"/>
  <path d="M5.81479 13.553C5.39978 13.553 4.98474 13.711 4.66879 14.0269C4.3627 14.333 4.19412 14.74 4.19412 15.1729C4.19412 15.6058 4.3627 16.0128 4.66879 16.3189C5.30068 16.9507 6.32889 16.9507 6.96082 16.3189C7.5927 15.687 7.5927 14.6588 6.96082 14.0269C6.64483 13.7109 6.22979 13.553 5.81479 13.553Z"/>
</svg>
