<svg width="21" height="21" viewBox="0 0 21 21"
  xmlns="http://www.w3.org/2000/svg">
  <path fill-rule="evenodd" clip-rule="evenodd" d="M14.0703 4.262C14.1033 4.0637 14.1205 3.85996 14.1205 3.65217C14.1205 1.63514 12.4996 0 10.5001 0C8.50053 0 6.87958 1.63514 6.87958 3.65217C6.87958 3.86 6.89679 4.06377 6.92985 4.26211C6.77609 4.13405 6.60975 4.01712 6.43132 3.9132C4.69967 2.90468 2.48542 3.50318 1.48566 5.24999C0.485889 6.9968 1.0792 9.23043 2.81084 10.239C2.98925 10.3429 3.17277 10.4297 3.35957 10.5C3.17277 10.5703 2.98925 10.6571 2.81084 10.761C1.0792 11.7695 0.485889 14.0032 1.48566 15.75C2.48542 17.4968 4.69967 18.0953 6.43132 17.0868C6.60975 16.9829 6.77609 16.8659 6.92985 16.7379C6.89679 16.9362 6.87958 17.14 6.87958 17.3478C6.87958 19.3649 8.50053 21 10.5001 21C12.4996 21 14.1205 19.3649 14.1205 17.3478C14.1205 17.14 14.1033 16.9363 14.0703 16.738C14.224 16.866 14.3903 16.9829 14.5687 17.0868C16.3003 18.0953 18.5146 17.4968 19.5143 15.75C20.5141 14.0032 19.9208 11.7695 18.1892 10.761C18.0108 10.6571 17.8272 10.5703 17.6404 10.5C17.8272 10.4297 18.0108 10.3429 18.1892 10.239C19.9208 9.23043 20.5141 6.9968 19.5143 5.24999C18.5146 3.50319 16.3003 2.90468 14.5687 3.9132C14.3903 4.01709 14.224 4.13398 14.0703 4.262ZM10.5037 13.6956C12.2533 13.6956 13.6717 12.2649 13.6717 10.5C13.6717 8.73506 12.2533 7.30432 10.5037 7.30432C8.75415 7.30432 7.33583 8.73506 7.33583 10.5C7.33583 12.2649 8.75415 13.6956 10.5037 13.6956Z"/>
</svg>
