<svg width="21" height="21" viewBox="0 0 21 21"
  xmlns="http://www.w3.org/2000/svg">
  <path d="M18.2379 5.13765C18.1901 5.05881 18.1131 5.00207 18.0236 4.97972L17.3481 4.81275C15.2968 4.30474 13.222 5.55581 12.714 7.60713C12.714 7.60705 12.7139 7.60722 12.714 7.60713L12.5779 8.15705L10.9889 9.16967L11.375 6.42959L11.862 6.05286C13.5342 4.76066 13.8422 2.35752 12.5499 0.685368C12.55 0.685455 12.5498 0.685281 12.5499 0.685368L12.1243 0.134752C12.0069 -0.0166962 11.7892 -0.0446553 11.6373 0.072138L11.0859 0.497568C9.41399 1.78973 9.10591 4.19256 10.3979 5.86467L10.697 6.25218L10.3839 8.46839C10.0149 7.76137 9.43251 7.18857 8.71944 6.83137L8.53612 6.73953L8.40428 6.30958C7.78162 4.29135 5.64324 3.15759 3.62332 3.77474L2.95786 3.97893C2.77424 4.03537 2.6711 4.23 2.72754 4.41362C2.72754 4.41358 2.72754 4.41367 2.72754 4.41362L2.93177 5.07886C3.55205 7.09904 5.69255 8.23393 7.71274 7.6137L8.34202 7.42029L8.40741 7.45334C9.14992 7.82381 9.71349 8.47569 9.97278 9.26394L10.0573 9.52066H4.6255C4.43339 9.52066 4.27764 9.67641 4.27764 9.86852V11.9557C4.27764 12.1478 4.43339 12.3035 4.6255 12.3035H5.02449L6.27678 20.1216C6.35622 20.6282 6.79331 21.0012 7.30609 21H13.7721C14.2854 21.0019 14.7233 20.6288 14.8028 20.1216L16.0537 12.3035H16.4527C16.6448 12.3035 16.8005 12.1478 16.8005 11.9557V9.86852C16.8005 9.67641 16.6448 9.52066 16.4527 9.52066H11.7322L12.9546 8.74146L13.4764 8.87051C15.5263 9.37934 17.6006 8.13001 18.1095 6.08008C18.1097 6.07899 18.11 6.07795 18.1102 6.07686L18.2776 5.40132C18.2999 5.31166 18.2856 5.21678 18.2379 5.13765ZM4.81056 5.65004L7.43793 6.96668C5.80243 7.42577 4.09906 6.49777 3.59792 4.87467L3.49565 4.54211L3.82821 4.44019C5.39657 3.96115 7.06894 4.77274 7.663 6.30123L5.12363 5.02807C4.95188 4.94163 4.74255 5.01077 4.65611 5.18252C4.56967 5.35427 4.6388 5.5636 4.81056 5.65004ZM11.5131 1.04788L11.5114 1.04823L11.7865 0.835338L11.9994 1.11049C13.0297 2.44692 12.8153 4.35944 11.5148 5.43472L11.9093 2.63307C11.9361 2.44279 11.8036 2.26677 11.6133 2.23999C11.423 2.2132 11.247 2.34574 11.2202 2.53602L10.8348 5.27679C9.91047 3.90879 10.2073 2.05815 11.5131 1.04788ZM14.1158 20.0117C14.0888 20.1805 13.9431 20.3047 13.7721 20.3046H7.30609C7.13512 20.3047 6.98941 20.1805 6.96241 20.0117L5.72925 12.3035H15.3489L14.1158 20.0117ZM16.1048 10.2164V11.6078H4.97336V10.2164H16.1048ZM17.435 5.9092C17.0317 7.5283 15.4294 8.54657 13.7923 8.22419L15.8384 6.99069C16.0029 6.89137 16.0558 6.67744 15.9565 6.5129C15.8572 6.34837 15.6432 6.29549 15.4787 6.3948L13.4329 7.62831C13.9094 6.02773 15.5605 5.08495 17.1811 5.48794L17.5185 5.57142L17.435 5.9092Z"/>
  <path d="M14.1158 20.0117C14.0888 20.1805 13.9431 20.3047 13.7721 20.3046H7.30609C7.13512 20.3047 6.98941 20.1805 6.96241 20.0117L5.72925 12.3035H15.3489L14.1158 20.0117Z"/>
  <path d="M17.435 5.9092C17.0317 7.5283 15.4294 8.54657 13.7923 8.22419L15.8384 6.99069C16.0029 6.89137 16.0558 6.67744 15.9565 6.5129C15.8572 6.34837 15.6432 6.29549 15.4787 6.3948L13.4329 7.62831C13.9094 6.02773 15.5605 5.08495 17.1811 5.48794L17.5185 5.57142L17.435 5.9092Z"/>
  <path d="M11.5131 1.04788L11.5114 1.04823L11.7865 0.835338L11.9994 1.11049C13.0297 2.44692 12.8153 4.35944 11.5148 5.43472L11.9093 2.63307C11.9361 2.44279 11.8036 2.26677 11.6133 2.23999C11.423 2.2132 11.247 2.34574 11.2202 2.53602L10.8348 5.27679C9.91047 3.90879 10.2073 2.05815 11.5131 1.04788Z"/>
  <path d="M4.81056 5.65004L7.43793 6.96668C5.80243 7.42577 4.09906 6.49777 3.59792 4.87467L3.49565 4.54211L3.82821 4.44019C5.39657 3.96115 7.06894 4.77274 7.663 6.30123L5.12363 5.02807C4.95188 4.94163 4.74255 5.01077 4.65611 5.18252C4.56967 5.35427 4.6388 5.5636 4.81056 5.65004Z"/>
</svg>
