<svg width="21" height="21" viewBox="0 0 21 21"
  xmlns="http://www.w3.org/2000/svg">
  <path d="M17.7383 3.27295C15.8064 1.34104 13.2378 0.2771 10.5057 0.2771C7.77354 0.2771 5.2049 1.34104 3.27293 3.27295C1.34101 5.20487 0.277069 7.77351 0.277069 10.5057C0.277069 13.2378 1.34101 15.8064 3.27293 17.7384C5.20485 19.6703 7.77345 20.7342 10.5056 20.7342C13.2378 20.7342 15.8064 19.6703 17.7383 17.7384C19.6703 15.8064 20.7342 13.2378 20.7342 10.5057C20.7342 7.77351 19.6703 5.20487 17.7383 3.27295ZM10.5057 19.9245C5.31205 19.9245 1.0868 15.6992 1.0868 10.5057C1.0868 5.31212 5.31205 1.08683 10.5057 1.08683C15.6993 1.08683 19.9245 5.31212 19.9245 10.5057C19.9245 15.6992 15.6992 19.9245 10.5057 19.9245Z"/>
  <path d="M10.5 1C3.99997 1 0.999969 5.81306 0.999969 10.5C0.999969 16 4.99997 20 10.5 20C16 20 20 16 20 10.5C20 5 15.1869 1 10.5 1ZM10.5 18.1023C6.30804 18.1023 2.89763 14.6919 2.89763 10.5C2.89763 6.30807 6.30799 2.89766 10.5 2.89766C14.6919 2.89766 18.1023 6.30802 18.1023 10.5C18.1023 14.692 14.6919 18.1023 10.5 18.1023Z"/>
  <path d="M12.2622 10.4988C12.2622 9.52644 11.4711 8.73535 10.4987 8.73535C9.52625 8.73535 8.73517 9.52644 8.73517 10.4988C8.73517 11.4713 9.52625 12.2623 10.4987 12.2623C11.4711 12.2623 12.2622 11.4713 12.2622 10.4988ZM9.73851 10.4988C9.73851 10.0797 10.0795 9.7387 10.4987 9.7387C10.9178 9.7387 11.2589 10.0797 11.2589 10.4988C11.2589 10.918 10.9178 11.259 10.4987 11.259C10.0795 11.259 9.73851 10.918 9.73851 10.4988Z"/>
  <path d="M10.4988 2.72339C6.21135 2.72339 2.72333 6.21141 2.72333 10.4988C2.72333 14.7862 6.21141 18.2743 10.4988 18.2743C14.7862 18.2743 18.2743 14.7862 18.2743 10.4988C18.2743 6.21141 14.7862 2.72339 10.4988 2.72339ZM17.2709 10.4989C17.2709 11.2296 17.154 11.9335 16.9389 12.5934L14.1955 10.7899C14.0538 10.6968 14.0386 10.5553 14.0386 10.4989C14.0386 10.4424 14.0538 10.3009 14.1955 10.2079L16.9389 8.40439C17.1541 9.0642 17.2709 9.76811 17.2709 10.4989ZM15.5294 5.97027L12.599 7.44235C12.4474 7.51849 12.3174 7.46097 12.2684 7.43276C12.2196 7.4045 12.1047 7.32055 12.0949 7.15127L11.9047 3.87395C13.3288 4.17584 14.5888 4.92635 15.5294 5.97027ZM9.09246 3.874L8.90233 7.15177C8.89252 7.321 8.77769 7.405 8.7288 7.43321C8.67986 7.46147 8.54971 7.51888 8.39826 7.4428L5.46798 5.97038C6.40857 4.92646 7.6686 4.17596 9.09246 3.874ZM3.72662 10.4989C3.72662 9.76816 3.84345 9.06431 4.05856 8.40445L6.80171 10.2078C6.9434 10.3009 6.95868 10.4424 6.95868 10.4988C6.95868 10.5553 6.9434 10.6967 6.80171 10.7898L4.05856 12.5932C3.84345 11.9334 3.72662 11.2295 3.72662 10.4989ZM5.46809 15.0275L8.39826 13.5553C8.54982 13.4792 8.67986 13.5367 8.7288 13.5649C8.77769 13.5931 8.89257 13.6771 8.90238 13.8463L9.09252 17.1237C7.66866 16.8218 6.40873 16.0714 5.46809 15.0275ZM10.1054 17.2593L9.90406 13.7882C9.87758 13.3326 9.6258 12.9242 9.23053 12.696C8.83522 12.4677 8.35567 12.4538 7.94787 12.6587L4.84279 14.2188C4.69858 14.0003 4.56664 13.773 4.44808 13.5379L7.35288 11.6283C7.73432 11.3775 7.96202 10.9553 7.96202 10.4988C7.96202 10.0424 7.73432 9.62011 7.35288 9.36933L4.44808 7.45974C4.56664 7.22468 4.69853 6.99753 4.84262 6.77908L7.9477 8.33934C8.13962 8.43577 8.34737 8.48377 8.55478 8.48377C8.78823 8.48377 9.02111 8.42301 9.23042 8.30216C9.62574 8.0739 9.87753 7.66559 9.90395 7.20991L10.1053 3.7385C10.2355 3.73103 10.3666 3.72679 10.4987 3.72679C10.6306 3.72679 10.7617 3.73103 10.8919 3.7385L11.0932 7.20946C11.1197 7.66515 11.3714 8.07345 11.7667 8.30172C11.976 8.42256 12.209 8.48338 12.4424 8.48338C12.6498 8.48338 12.8575 8.43544 13.0494 8.33901L16.1547 6.77903C16.2989 6.99748 16.4308 7.22462 16.5493 7.45968L13.6444 9.36939C13.2629 9.62017 13.0352 10.0424 13.0352 10.4988C13.0352 10.9553 13.2629 11.3775 13.6444 11.6283L16.5494 13.538C16.4308 13.7731 16.2989 14.0002 16.1549 14.2186L13.0496 12.6582C12.6417 12.4533 12.1621 12.4672 11.7668 12.6954C11.3715 12.9236 11.1197 13.332 11.0932 13.7877L10.8919 17.2593C10.7618 17.2667 10.6308 17.271 10.4988 17.271C10.3667 17.271 10.2356 17.2667 10.1054 17.2593ZM11.9048 17.1237L12.0949 13.8459C12.1047 13.6766 12.2196 13.5926 12.2685 13.5644C12.3174 13.5362 12.4475 13.4786 12.599 13.5548L15.5295 15.0273C14.5889 16.0713 13.3288 16.8219 11.9048 17.1237Z"/>
</svg>
