<svg width="21" height="21" viewBox="0 0 21 21"
  xmlns="http://www.w3.org/2000/svg">
  <path fill-rule="evenodd" clip-rule="evenodd" d="M7.6315 1.62125e-05C7.6315 1.22086 6.64182 2.21054 5.42098 2.21054C4.20014 2.21054 3.21045 1.22086 3.21045 1.62125e-05V0H0V18C0 19.6569 1.34315 21 3 21H18C19.6569 21 21 19.6569 21 18V0H18.6841V1.62125e-05C18.6841 1.22086 17.6944 2.21054 16.4736 2.21054C15.2528 2.21054 14.2631 1.22086 14.2631 1.62125e-05V0H13.1578V1.62125e-05C13.1578 1.22086 12.1681 2.21054 10.9473 2.21054C9.72645 2.21054 8.73676 1.22086 8.73676 1.62125e-05V0H7.6315V1.62125e-05ZM9.11972 11.2204C8.14916 11.7223 6.68037 10.8107 5.83909 9.18409C4.99781 7.55751 5.1026 5.83197 6.07316 5.32999C7.04372 4.82801 8.51251 5.73967 9.35379 7.36625C10.1951 8.99283 10.0903 10.7184 9.11972 11.2204ZM12.8366 18.1118C12.0575 18.878 10.385 18.4406 9.10099 17.135C7.81695 15.8293 7.40759 14.1498 8.18666 13.3836C8.96573 12.6174 10.6382 13.0548 11.9223 14.3604C13.2063 15.6661 13.6157 17.3456 12.8366 18.1118ZM12.3459 9.58037C11.7114 11.2982 12.0279 12.9977 13.0529 13.3763C14.0779 13.7549 15.4232 12.6693 16.0577 10.9514C16.6923 9.23362 16.3757 7.53413 15.3507 7.15552C14.3257 6.77691 12.9804 7.86255 12.3459 9.58037Z"/>
</svg>
