<svg width="21" height="21" viewBox="0 0 21 21"
  xmlns="http://www.w3.org/2000/svg">
  <path d="M0.615234 6.42383H1.92773C2.26723 6.42383 2.54297 6.69956 2.54297 7.03906V11.2699C2.54297 12.6843 3.50123 13.9117 4.87349 14.2543L5.00391 14.2868V17.9234C5.00391 18.422 5.28813 18.8552 5.74587 19.053C6.20393 19.2511 6.71294 19.1613 7.07552 18.8211L10.458 15.6503L14.861 16.751C14.859 16.7957 14.8477 16.8376 14.8477 16.8828C14.8477 18.5789 16.2278 19.959 17.9238 19.959C19.6199 19.959 21 18.5789 21 16.8828C21 15.1868 19.6199 13.8066 17.9238 13.8066C16.7039 13.8066 15.6568 14.526 15.1598 15.558L13.684 15.189L19.4263 8.88477H20.3848C20.7247 8.88477 21 8.60951 21 8.26953C21 7.92955 20.7247 7.6543 20.3848 7.6543H5.61914C5.27916 7.6543 5.00391 7.92955 5.00391 8.26953V12.9878C4.27748 12.7261 3.77344 12.0555 3.77344 11.2699V7.03906C3.77344 6.02136 2.94543 5.19336 1.92773 5.19336H0.615234C0.275253 5.19336 0 5.46861 0 5.80859C0 6.14857 0.275253 6.42383 0.615234 6.42383ZM18.0728 16.2862L16.3867 15.8646C16.7176 15.3667 17.2823 15.0371 17.9238 15.0371C18.9415 15.0371 19.7695 15.8651 19.7695 16.8828C19.7695 17.9005 18.9415 18.7285 17.9238 18.7285C16.9667 18.7285 16.1866 17.9934 16.0961 17.0597L17.7748 17.4795C18.1004 17.5618 18.4375 17.3649 18.5205 17.0318C18.6033 16.7026 18.4027 16.3685 18.0728 16.2862ZM6.23438 14.5944L9.03802 15.2954L6.23438 17.9234V14.5944Z"/>
  <path d="M17.0079 4.03107C16.3702 2.37234 14.8054 1.27148 13.0019 1.27148H11.7715C9.96807 1.27148 8.40323 2.37234 7.76556 4.03107C6.73777 4.42889 5.90144 5.20818 5.42767 6.19336H19.3457C18.8718 5.20818 18.0357 4.42889 17.0079 4.03107Z"/>
</svg>
