<svg width="21" height="21" viewBox="0 0 21 21"
  xmlns="http://www.w3.org/2000/svg">
  <path d="M0 12.4091C1.90909 14.7955 1.43182 18.1364 1.43182 21H19.0909C19.0909 19.0909 19.0909 14.7955 21 12.4091C20.0455 12.4091 17.1818 12.4091 15.75 15.2727C15.2727 11.9318 16.2273 8.11364 18.1364 5.72727C15.2727 7.15909 13.8409 8.59091 12.4091 12.8864C11.4545 10.0227 12.8864 3.81818 15.2727 0C10.5 3.34091 8.11364 10.9773 8.11364 15.75C7.63636 12.4091 5.25 8.11364 0.954545 6.68182C2.86364 9.06818 4.77273 11.9318 4.77273 17.1818C3.81818 15.75 2.86364 13.3636 0 12.4091Z"/>
</svg>
