<svg width="21" height="21" viewBox="0 0 21 21"
  xmlns="http://www.w3.org/2000/svg">
  <g clip-path="url(#clip0)">
    <path d="M3.47247 10.9909H6.3259C5.76183 9.88569 4.80079 8.46476 3.17011 6.95575C2.85208 6.66146 2.42491 6.49268 1.998 6.49268C1.54916 6.49268 1.10933 6.66666 0.690666 7.00986C-0.614811 8.07992 0.275441 9.40197 0.579396 9.78174C0.981037 10.2835 1.40142 10.9905 1.77188 11.8317C2.16408 11.321 2.78033 10.9909 3.47247 10.9909Z"/>
    <path d="M20.3093 7.00987C19.8906 6.6667 19.4508 6.49268 19.0019 6.49268C18.5751 6.49268 18.1479 6.66146 17.8298 6.95575C16.1991 8.46477 15.2381 9.88571 14.6741 10.991H17.5275C18.2194 10.991 18.8355 11.3208 19.2277 11.8313C19.5983 10.9902 20.0188 10.2836 20.4205 9.78171C20.7245 9.40199 21.6148 8.07988 20.3093 7.00987Z"/>
    <path d="M18.7892 15.9718V13.1346C18.7892 12.439 18.2232 11.873 17.5276 11.873H3.47246C2.77683 11.873 2.21091 12.439 2.21091 13.1346V15.9718C2.21091 16.6674 2.77683 17.2333 3.47246 17.2333H17.5276C18.2232 17.2333 18.7892 16.6674 18.7892 15.9718Z"/>
    <path d="M15.9432 18.1152L16.1513 19.7629H17.2127L17.4209 18.1152H15.9432Z"/>
    <path d="M3.57916 18.1152L3.78728 19.7629H4.84874L5.05686 18.1152H3.57916Z"/>
    <path d="M13.6893 10.9908C14.2938 9.67954 15.3576 8.04171 17.2308 6.30821C17.495 6.06371 17.8016 5.87945 18.1316 5.76165C16.9445 3.11717 13.9716 1.2373 10.5 1.2373C7.02834 1.2373 4.05499 3.11695 2.8678 5.76147C3.19799 5.87927 3.50477 6.06358 3.76916 6.30821C5.64237 8.04166 6.70612 9.67945 7.31063 10.9908H13.6893Z"/>
  </g>
  <defs>
    <clipPath id="clip0">
      <rect width="21" height="21" fill="white"/>
    </clipPath>
  </defs>
</svg>
