<svg width="21" height="21" viewBox="0 0 21 21"
  xmlns="http://www.w3.org/2000/svg">
  <g clip-path="url(#clip0)">
    <path d="M14.1968 10.947C13.2454 9.46256 11.6035 8.5647 9.84064 8.5647C8.07799 8.5647 6.43612 9.46252 5.48473 10.947L2.86548 15.0329C2.14815 16.152 2.24831 17.609 3.11156 18.6194C3.97592 19.6298 5.39967 19.9553 6.61722 19.4202L6.61804 19.4194C8.67173 18.5168 11.0099 18.5168 13.0642 19.4202C14.281 19.9553 15.7048 19.6302 16.5692 18.6198C17.4332 17.6094 17.5333 16.152 16.816 15.0329L14.1968 10.947Z"/>
    <path d="M3.3752 10.553C4.57924 10.0903 5.114 8.5689 4.57019 7.15623C4.02603 5.74385 2.60919 4.97335 1.40648 5.43673C0.203379 5.89934 -0.330611 7.42045 0.212216 8.83343C0.756629 10.2454 2.17356 11.0163 3.3752 10.553Z"/>
    <path d="M8.10416 7.99472C9.6725 7.99472 10.9444 6.50136 10.9444 4.66008C10.9444 2.81803 9.6725 1.32471 8.10416 1.32471C6.53625 1.32471 5.26431 2.81798 5.26431 4.66008C5.26431 6.50136 6.53625 7.99472 8.10416 7.99472Z"/>
    <path d="M13.3997 8.98583C14.888 9.4804 16.5663 8.46415 17.1471 6.71681C17.7283 4.96921 16.9918 3.15084 15.5044 2.65631C14.016 2.16179 12.3378 3.17799 11.7574 4.92563C11.1765 6.67328 11.9123 8.49131 13.3997 8.98583Z"/>
    <path d="M20.1454 8.48443C19.1081 7.71808 17.5381 8.08221 16.6371 9.29925C15.7372 10.5166 15.8476 12.125 16.8828 12.8913C17.9178 13.6581 19.4897 13.2936 20.3912 12.0768C21.2911 10.8595 21.1804 9.25087 20.1454 8.48443Z"/>
  </g>
  <defs>
    <clipPath id="clip0">
      <rect width="21" height="21" fill="white"/>
    </clipPath>
  </defs>
</svg>
