<svg width="21" height="21" viewBox="0 0 21 21"
  xmlns="http://www.w3.org/2000/svg">
  <path d="M10.91 9.09561C10.9084 9.0913 10.9066 9.0872 10.9045 9.08314L6.22352 0.0609491C6.20408 0.0235429 6.16548 0 6.12328 0C6.08107 0 6.04248 0.0235429 6.02304 0.0609491L1.34205 9.08314C1.33992 9.0872 1.33807 9.09134 1.33651 9.09561C0.843176 10.4165 0.893667 11.8504 1.4788 13.1331C2.06388 14.4158 3.11355 15.3938 4.43442 15.8871C4.97542 16.0891 5.54242 16.2005 6.11983 16.2181C6.12098 16.2181 6.12213 16.2181 6.12328 16.2181C6.12443 16.2181 6.12558 16.2181 6.12672 16.2181C6.7041 16.2004 7.27114 16.0891 7.81206 15.8871C9.13288 15.3938 10.1826 14.4158 10.7677 13.1331C11.3528 11.8504 11.4034 10.4165 10.91 9.09561Z"/>
  <path d="M19.7395 15.2476C19.7371 15.2408 19.7342 15.2342 19.731 15.2276L16.1563 8.09769C16.1262 8.03773 16.0664 8 16.0011 8C15.9357 8 15.8759 8.03767 15.8458 8.09769L12.2712 15.2276C12.2679 15.2342 12.265 15.2408 12.2626 15.2476C11.8776 16.3144 11.917 17.4725 12.3737 18.5083C12.8302 19.5443 13.6494 20.3342 14.6804 20.7326C15.1026 20.8957 15.5452 20.9857 15.9957 20.9999C15.9975 21 15.9993 21 16.0011 21C16.0028 21 16.0046 21 16.0064 20.9999C16.4568 20.9857 16.8994 20.8957 17.3217 20.7326C19.4494 19.9103 20.5341 17.4497 19.7395 15.2476Z"/>
</svg>
