<svg width="21" height="21" viewBox="0 0 21 21"
  xmlns="http://www.w3.org/2000/svg">
  <path d="M7.1676 6.4418C3.35094 7.46159 1 10.7804 1 14C1 17.866 5.25329 21 10.5 21C15.7467 21 20 17.866 20 14C20 10.1171 17.201 7.67014 13.6207 6.659C12.8346 7.40831 11.727 7.875 10.5 7.875C9.15835 7.875 7.95961 7.31707 7.1676 6.4418Z"/>
  <path d="M7.90909 2.625C9.34001 2.625 10.5 1.44975 10.5 0C10.5 0.966511 11.2733 1.75 12.2273 1.75C12.6162 1.75 12.9751 1.61974 13.2639 1.39995C13.6976 1.98493 13.9545 2.71205 13.9545 3.5C13.9545 5.43299 12.4079 7 10.5 7C8.59211 7 7.04545 5.43299 7.04545 3.5C7.04545 3.15997 7.09332 2.83125 7.18259 2.5204C7.41309 2.5885 7.65688 2.625 7.90909 2.625Z"/>
</svg>
