<svg width="21" height="21" viewBox="0 0 21 21"
  xmlns="http://www.w3.org/2000/svg">
  <g clip-path="url(#clip0)">
    <path d="M20.8009 15.2596L19.3155 13.7743C19.5694 13.899 19.8845 13.8563 20.0955 13.6455C20.3609 13.38 20.3609 12.9496 20.0955 12.6845L18.528 11.1171C18.794 11.3136 19.1704 11.2922 19.4113 11.0513C19.6766 10.786 19.6766 10.3557 19.4113 10.0905L17.8661 8.54526C18.1296 8.71821 18.4869 8.68893 18.7186 8.45719C18.9838 8.19192 18.9838 7.76182 18.7186 7.49648L17.3013 6.07909C17.5498 6.18704 17.8494 6.14007 18.0524 5.93677C18.3177 5.67143 18.3177 5.24119 18.0524 4.97614L17.04 3.96379C17.0392 3.96266 17.038 3.96188 17.0369 3.96089C17.0356 3.95941 17.0345 3.95814 17.0333 3.95679C16.7678 3.69166 16.338 3.69166 16.0723 3.95679L15.0533 4.97606C14.7881 5.24098 14.7881 5.67136 15.0533 5.93684C15.2564 6.14 15.5562 6.18704 15.8045 6.07902L14.3872 7.49641C14.122 7.76175 14.122 8.19184 14.3872 8.45712C14.619 8.68886 14.9762 8.71814 15.2398 8.54519L13.6946 10.0904C13.5134 10.2714 13.4561 10.5291 13.5221 10.7589L12.4595 9.69646C12.7257 9.89276 13.1019 9.87153 13.343 9.63067C13.6082 9.36519 13.6082 8.93488 13.343 8.66976L11.7975 7.12454C12.061 7.29735 12.4185 7.26821 12.6501 7.03654C12.9153 6.7712 12.9153 6.34097 12.6501 6.07584L11.2328 4.65838C11.4813 4.76618 11.7809 4.71935 11.9839 4.51612C12.2491 4.25078 12.2491 3.82076 11.9839 3.55514L10.9716 2.54315C10.9707 2.54195 10.9696 2.54117 10.9686 2.54018C10.9673 2.53876 10.9663 2.53728 10.9649 2.53622C10.6995 2.27081 10.2696 2.27081 10.0041 2.53622L8.98502 3.55514C8.71982 3.82069 8.71982 4.25071 8.98502 4.51605C9.18804 4.71928 9.48769 4.76618 9.73598 4.65838L8.31895 6.07577C8.05361 6.3409 8.05361 6.77113 8.31895 7.03647C8.5504 7.26814 8.90771 7.29735 9.17149 7.12447L7.62613 8.66968C7.36065 8.93481 7.36065 9.36512 7.62613 9.6306C7.867 9.87139 8.24347 9.89269 8.50931 9.69639L7.12169 11.084L5.77568 9.73791C6.03911 9.91087 6.39662 9.88158 6.62815 9.64984C6.89363 9.3845 6.89363 8.95441 6.62815 8.68907L5.21083 7.27189C5.45947 7.37962 5.75891 7.33272 5.96193 7.12942C6.22741 6.86408 6.22741 6.43413 5.96193 6.16865L4.95008 5.15666C4.94881 5.1556 4.94775 5.15468 4.94676 5.15369C4.94535 5.15256 4.94428 5.15107 4.94301 5.1498C4.67767 4.88439 4.24765 4.88439 3.9821 5.1498L2.96303 6.169C2.69769 6.43434 2.69769 6.86429 2.96303 7.12963C3.16641 7.33294 3.46584 7.37991 3.71414 7.2721L2.29682 8.68928C2.03162 8.95462 2.03162 9.38471 2.29682 9.65005C2.52863 9.88179 2.88586 9.91108 3.14964 9.73812L1.60435 11.2834C1.33894 11.5485 1.33894 11.9786 1.60435 12.2441C1.84522 12.485 2.22148 12.5064 2.48732 12.3099L0.920099 13.8775C0.654546 14.1427 0.654546 14.5727 0.920099 14.8382C1.13097 15.0493 1.44647 15.0918 1.70021 14.9671L0.291514 16.3757C0.115446 16.4983 0 16.7181 0 16.9489C0 17.3241 0.304035 17.6444 0.679516 17.6444H0.694654C0.695079 17.6444 0.69522 17.6444 0.695503 17.6444H3.75637V17.9826C3.75637 18.3582 4.05298 18.6623 4.4281 18.6623C4.80344 18.6623 5.1004 18.3581 5.1004 17.9826V17.6444H8.19063C8.19713 17.6444 8.20315 17.6277 8.2098 17.6275C8.39068 17.6328 8.57269 17.5592 8.71063 17.4213C8.97618 17.1559 8.97618 16.7362 8.71063 16.4706L7.25702 15.0272H9.76923V17.9827C9.76923 18.3583 10.0661 18.6624 10.4412 18.6624C10.8165 18.6624 11.1133 18.3582 11.1133 17.9827V15.0272H12.5658L12.382 15.1968C12.206 15.3196 12.0905 15.5275 12.0905 15.7584C12.0905 16.1337 12.3945 16.4419 12.7699 16.4419H12.7852C12.7855 16.4419 12.7856 16.4419 12.7859 16.4419H15.8528V17.9826C15.8528 18.3582 16.1497 18.6623 16.5246 18.6623C16.8999 18.6623 17.1968 18.3581 17.1968 17.9826V16.4419H20.281C20.2877 16.4419 20.2935 16.4298 20.3002 16.4296C20.4809 16.4352 20.6632 16.3639 20.8012 16.2262C21.0664 15.9608 21.0664 15.5249 20.8009 15.2596Z"/>
  </g>
  <defs>
    <clipPath id="clip0">
      <rect width="21" height="21" fill="white"/>
    </clipPath>
  </defs>
</svg>
