<svg width="21" height="21" viewBox="0 0 21 21"
  xmlns="http://www.w3.org/2000/svg">
  <g clip-path="url(#clip0)">
    <path d="M14.1647 20.9381L14.062 20.9999H6.99147L6.87921 20.7275C6.19731 19.0731 5.81422 17.3458 5.74049 15.5935C5.68161 14.1926 5.81934 12.7734 6.1499 11.3757C6.7136 8.99242 7.63617 7.50611 7.67523 7.44402L7.80394 7.23901H11.2415L11.9459 7.44402C13.8643 8.05266 14.1647 10.7102 14.1647 10.7102C14.1647 10.7102 15.2332 13.997 15.4319 15.8824C15.6046 17.5207 15.4642 18.8514 15.0147 19.8374C14.6548 20.6272 14.2138 20.9086 14.1647 20.9381ZM8.29094 8.12676C7.94842 8.74169 7.36377 10.0248 6.99107 11.6166C6.87022 12.1327 6.77772 12.6516 6.71284 13.1711H8.83462C8.62558 11.8597 8.54451 10.1595 8.84963 8.12679L8.29094 8.12676ZM12.6848 12.6861C11.6609 11.6582 10.5082 10.5006 10.38 8.12676H9.73344C9.40754 10.1933 9.5019 11.8953 9.71967 13.1711H13.1599C13.0073 13.0101 12.8481 12.8501 12.6848 12.6861Z"/>
    <path d="M15.2781 2.65773H14.5406V0H15.2781C15.6148 0 15.8878 0.277538 15.8878 0.619911V2.03784C15.8878 2.38019 15.6148 2.65773 15.2781 2.65773Z"/>
    <path d="M12.8761 3.71871C12.9163 3.68406 12.9574 3.65213 12.9993 3.62239C13.1821 3.51418 13.3986 3.42892 13.6553 3.38208C13.6553 3.38208 14.0787 6.09597 14.9072 6.9382C15.7356 7.78043 14.4285 8.0612 13.8394 6.75104C13.2604 5.46339 12.3618 5.11611 12.0515 5.10454C12.0991 4.95821 12.1556 4.80673 12.2228 4.65632C12.4033 4.25219 12.6231 3.93674 12.8761 3.71871Z"/>
    <path d="M8.08273 6.13896C8.08273 3.5085 6.74118 2.84364 6.02217 2.67621C5.82093 2.62934 5.73504 2.38604 5.85976 2.21882C7.27009 0.32876 8.87002 0 9.6291 0C10.4067 0 13.6269 0 13.8833 0H13.9001V2.65772V2.69515C11.4701 2.69515 11.1755 6.13896 11.1755 6.13896H8.08273Z"/>
  </g>
  <defs>
    <clipPath id="clip0">
      <rect width="21" height="21" fill="white"/>
    </clipPath>
  </defs>
</svg>
