<svg width="21" height="21" viewBox="0 0 21 21"
  xmlns="http://www.w3.org/2000/svg">
  <g clip-path="url(#clip0)">
    <path d="M7.70952 9.59426C8.19432 9.59426 8.58734 9.20125 8.58734 8.71644C8.58734 8.23164 8.19432 7.83862 7.70952 7.83862C7.22471 7.83862 6.8317 8.23164 6.8317 8.71644C6.8317 9.20125 7.22471 9.59426 7.70952 9.59426Z"/>
    <path d="M13.2862 13.157C13.771 13.157 14.164 12.764 14.164 12.2792C14.164 11.7944 13.771 11.4014 13.2862 11.4014C12.8014 11.4014 12.4084 11.7944 12.4084 12.2792C12.4084 12.764 12.8014 13.157 13.2862 13.157Z"/>
    <path d="M20.5239 11.6597L20.2055 11.2251C19.8613 10.7517 19.8527 10.1106 20.1926 9.62863L20.5024 9.18972C20.9757 8.51844 20.7563 7.58468 20.0291 7.19311L19.5557 6.93923C19.0394 6.66383 18.7554 6.08722 18.8543 5.50631L18.9447 4.97704C19.0824 4.16807 18.4757 3.41934 17.6538 3.38491L17.1159 3.3634C16.5307 3.33758 16.0229 2.9417 15.8594 2.378L15.7088 1.86164C15.4808 1.06988 14.6116 0.66109 13.8542 0.988121L13.3594 1.19897C12.8215 1.43133 12.1932 1.29364 11.8017 0.854727L11.4445 0.454544C10.898 -0.156488 9.93845 -0.152185 9.39626 0.471756L9.04341 0.876242C8.65614 1.31946 8.0322 1.46576 7.49002 1.242L6.99086 1.03545C6.22923 0.721332 5.36862 1.14733 5.14916 1.93909L5.00716 2.45976C4.85225 3.02776 4.3531 3.43225 3.76789 3.46237L3.23001 3.49249C2.40813 3.53982 1.81431 4.29716 1.96491 5.10613L2.06388 5.63541C2.17146 6.21201 1.89606 6.79292 1.384 7.07692L0.91497 7.33941C0.196362 7.73959 -0.0101836 8.67766 0.47606 9.34032L0.794485 9.77493C1.13873 10.2483 1.14733 10.8894 0.807394 11.3714L0.497575 11.8103C0.0242407 12.4815 0.243696 13.4153 0.97091 13.8069L1.44424 14.0608C1.96061 14.3362 2.24461 14.9128 2.14564 15.4937L2.05528 16.0229C1.91758 16.8319 2.52431 17.5806 3.34619 17.6151L3.88407 17.6366C4.46928 17.6624 4.97704 18.0583 5.14056 18.622L5.29116 19.1383C5.51922 19.9301 6.38844 20.3389 7.14577 20.0119L7.64062 19.801C8.1785 19.5686 8.80675 19.7063 9.19832 20.1453L9.55548 20.5454C10.1063 21.1565 11.0658 21.1522 11.6037 20.5282L11.9566 20.1237C12.3438 19.6805 12.9678 19.5342 13.51 19.758L14.0091 19.9645C14.7708 20.2787 15.6314 19.8527 15.8508 19.0609L15.9928 18.5402C16.1477 17.9722 16.6469 17.5677 17.2321 17.5376L17.77 17.5075C18.5919 17.4602 19.1857 16.7028 19.0351 15.8939L18.9361 15.3646C18.8285 14.788 19.1039 14.2071 19.616 13.9231L20.085 13.6606C20.8036 13.2647 21.0102 12.3266 20.5239 11.6597ZM5.58807 8.71638C5.58807 7.54596 6.53474 6.59929 7.70517 6.59929C8.8756 6.59929 9.82226 7.54596 9.82226 8.71638C9.82226 9.88681 8.8756 10.8335 7.70517 10.8335C6.53474 10.8335 5.58807 9.88251 5.58807 8.71638ZM8.11396 14.1769C7.93323 14.3964 7.6062 14.4265 7.38674 14.2458C7.16729 14.0651 7.13717 13.738 7.31789 13.5186L12.8731 6.82735C13.0538 6.60789 13.3809 6.57777 13.6003 6.7585C13.8198 6.93923 13.8499 7.26626 13.6692 7.48571L8.11396 14.1769ZM13.2862 14.3964C12.1158 14.3964 11.1691 13.4497 11.1691 12.2793C11.1691 11.1089 12.1158 10.1622 13.2862 10.1622C14.4566 10.1622 15.4033 11.1089 15.4033 12.2793C15.4033 13.4497 14.4566 14.3964 13.2862 14.3964Z"/>
  </g>
  <defs>
    <clipPath id="clip0">
      <rect width="21" height="21" fill="white"/>
    </clipPath>
  </defs>
</svg>
