<svg width="64" height="64" viewBox="0 0 64 64"
  xmlns="http://www.w3.org/2000/svg">
  <path fill-rule="evenodd" clip-rule="evenodd" d="M32.2464 8C33.1578 8 33.8966 8.72993 33.8966 9.63034V24.6784L53.4394 19.4128C54.3187 19.1759 55.2259 19.6881 55.4657 20.5567C55.7055 21.4254 55.1871 22.3217 54.3078 22.5586L46.7189 24.6034L56.5902 38.2565L56.3399 38.4331H57C57 44.4358 52.0744 49.302 45.9984 49.302C39.9224 49.302 34.9968 44.4358 34.9968 38.4331L43.4169 25.493L19.6461 31.8978L29.0861 44.9544L28.8359 45.131H29.496C29.496 51.1338 24.5704 56 18.4944 56C12.4183 56 7.49274 51.1338 7.49274 45.131L15.3505 33.0552L9.08486 34.7434C8.20557 34.9803 7.29837 34.4682 7.05856 33.5995C6.81876 32.7308 7.33716 31.8345 8.21645 31.5976L30.5962 25.5677V9.63034C30.5962 8.72993 31.335 8 32.2464 8ZM54.0139 38.4331L45.3816 26.4936L37.6125 38.4331H54.0139ZM26.5098 45.131L17.8775 33.1916L10.1085 45.131H26.5098Z"/>
</svg>
