<svg width="64" height="64" viewBox="0 0 64 64"
  xmlns="http://www.w3.org/2000/svg">
  <path d="M55.9577 26.2682C55.8563 25.9418 55.5874 25.7038 55.2635 25.6542L39.7208 23.2836L32.7701 8.50314C32.6257 8.19476 32.3267 8 32.0002 8C31.6737 8 31.3739 8.19476 31.2304 8.50314L24.2788 23.2845L8.73613 25.6551C8.41222 25.7047 8.14415 25.9418 8.04191 26.2691C7.94139 26.5946 8.02473 26.9535 8.25929 27.1925L19.5069 38.698L16.8511 54.9446C16.7961 55.2828 16.9284 55.6245 17.1922 55.8265C17.4577 56.0303 17.8091 56.0564 18.0969 55.895L32.0002 48.2253L45.9018 55.895C46.0273 55.9645 46.1656 55.9987 46.3022 55.9987C46.48 55.9987 46.657 55.941 46.8074 55.8265C47.072 55.6245 47.2043 55.2828 47.1485 54.9446L44.4936 38.6989L55.7412 27.1925C55.9749 26.9517 56.0591 26.5937 55.9577 26.2682Z"/>
</svg>
