<svg width="16" height="16" viewBox="0 0 16 16"
  xmlns="http://www.w3.org/2000/svg">
  <path fill-rule="evenodd" clip-rule="evenodd" d="M12.4714 3.5286C12.7317 3.78895 12.7317 4.21106 12.4714 4.47141L4.4714 12.4714C4.21105 12.7318 3.78894 12.7318 3.52859 12.4714C3.26824 12.2111 3.26824 11.7889 3.52859 11.5286L11.5286 3.5286C11.7889 3.26825 12.2111 3.26825 12.4714 3.5286Z"/>
  <path fill-rule="evenodd" clip-rule="evenodd" d="M3.52859 3.5286C3.78894 3.26825 4.21105 3.26825 4.4714 3.5286L12.4714 11.5286C12.7317 11.7889 12.7317 12.2111 12.4714 12.4714C12.2111 12.7318 11.7889 12.7318 11.5286 12.4714L3.52859 4.47141C3.26824 4.21106 3.26824 3.78895 3.52859 3.5286Z"/>
</svg>
