<svg width="32" height="32" viewBox="0 0 32 32"
  xmlns="http://www.w3.org/2000/svg">
  <g clip-path="url(#clip0)">
    <path d="M31.1938 11.6379L29.5835 10.2463C29.3837 10.0735 29.0817 10.0956 28.909 10.2955C28.7363 10.4953 28.7582 10.7973 28.9582 10.97L30.5684 12.3616C31.1424 12.8577 31.2057 13.7282 30.7097 14.3022L20.2505 26.4045C20.0779 26.6043 20.0998 26.9063 20.2997 27.0791C20.3901 27.1572 20.5014 27.1955 20.6122 27.1955C20.7464 27.1955 20.8797 27.1394 20.9742 27.03L31.4334 14.9276C32.2743 13.9546 32.1668 12.4788 31.1938 11.6379Z"/>
    <path d="M28.3588 9.18774L20.9098 2.75018C20.4384 2.34281 19.8365 2.14362 19.2153 2.18862C18.5939 2.23381 18.0274 2.51837 17.62 2.98968L16.9103 3.81093C16.7376 4.01081 16.7595 4.31281 16.9594 4.48549C17.1593 4.65831 17.4613 4.63618 17.634 4.43637L18.3437 3.61512C18.584 3.33712 18.9182 3.16925 19.2848 3.14256C19.6513 3.11562 20.0063 3.2335 20.2843 3.47381L27.7333 9.91137C27.8238 9.98955 27.9351 10.0278 28.0458 10.0278C28.18 10.0278 28.3133 9.97168 28.4079 9.8623C28.5805 9.66243 28.5586 9.36043 28.3588 9.18774Z"/>
    <path d="M23.8187 7.49711L10.932 3.17474C9.71251 2.76574 8.38795 3.42505 7.97901 4.6443L7.80901 5.15111C7.72501 5.40149 7.85995 5.67261 8.11039 5.75661C8.36083 5.84061 8.63183 5.70574 8.71589 5.45524L8.88589 4.94843C9.12714 4.22911 9.90845 3.84018 10.6278 4.08149L23.5146 8.4038C24.234 8.64511 24.6228 9.42649 24.3816 10.1457L18.3858 28.022C18.3018 28.2724 18.4367 28.5434 18.6871 28.6275C18.7376 28.6444 18.7888 28.6524 18.8393 28.6524C19.0391 28.6524 19.2255 28.5261 19.2926 28.3262L25.2885 10.45C25.6973 9.2308 25.0381 7.90605 23.8187 7.49711Z"/>
    <path d="M15.9247 6.2981H2.33238C1.04631 6.2981 0 7.34435 0 8.63041V27.4853C0 28.7714 1.04631 29.8177 2.33238 29.8177H15.9248C17.2108 29.8177 18.2571 28.7714 18.2571 27.4853V8.63041C18.2571 7.34435 17.2108 6.2981 15.9247 6.2981ZM17.3006 27.4853C17.3006 28.244 16.6833 28.8612 15.9247 28.8612H2.33238C1.57369 28.8612 0.9565 28.244 0.9565 27.4853V8.63041C0.9565 7.87172 1.57375 7.25453 2.33238 7.25453H15.9248C16.6834 7.25453 17.3006 7.87178 17.3006 8.63041V27.4853H17.3006Z"/>
    <path d="M16.1736 19.4976H2.08354C1.81941 19.4976 1.60529 19.7117 1.60529 19.9758C1.60529 20.2399 1.81941 20.4541 2.08354 20.4541H16.1737C16.4378 20.4541 16.652 20.2399 16.652 19.9758C16.6519 19.7117 16.4378 19.4976 16.1736 19.4976Z"/>
    <path d="M13.9442 22.2324H8.02204C7.75792 22.2324 7.54379 22.4465 7.54379 22.7107C7.54379 22.9748 7.75792 23.1889 8.02204 23.1889H13.9442C14.2083 23.1889 14.4224 22.9748 14.4224 22.7107C14.4224 22.4465 14.2083 22.2324 13.9442 22.2324Z"/>
    <path d="M6.42781 22.2324H4.31287C4.04875 22.2324 3.83463 22.4465 3.83463 22.7107C3.83463 22.9748 4.04875 23.1889 4.31287 23.1889H6.42781C6.69194 23.1889 6.90606 22.9748 6.90606 22.7107C6.90606 22.4465 6.69194 22.2324 6.42781 22.2324Z"/>
    <path d="M13.9441 24.0605H4.31288C4.04875 24.0605 3.83463 24.2747 3.83463 24.5388C3.83463 24.8029 4.04875 25.017 4.31288 25.017H13.9441C14.2083 25.017 14.4224 24.8029 14.4224 24.5388C14.4224 24.2746 14.2083 24.0605 13.9441 24.0605Z"/>
    <path d="M13.9441 25.8887H4.31288C4.04875 25.8887 3.83463 26.1028 3.83463 26.3669C3.83463 26.631 4.04875 26.8452 4.31288 26.8452H13.9441C14.2083 26.8452 14.4224 26.631 14.4224 26.3669C14.4224 26.1028 14.2083 25.8887 13.9441 25.8887Z"/>
    <path d="M14.3848 11.847C14.3285 11.6739 14.1789 11.5477 13.9988 11.5216L10.9298 11.0756L9.55739 8.2947C9.47676 8.13145 9.31058 8.02808 9.12851 8.02808C8.94651 8.02808 8.78026 8.13145 8.69964 8.2947L7.32714 11.0756L4.2582 11.5216C4.07808 11.5477 3.92839 11.6739 3.8722 11.847C3.81595 12.0201 3.86289 12.2101 3.9932 12.3372L6.21395 14.5018L5.6897 17.5584C5.65895 17.7378 5.7327 17.9191 5.87995 18.0261C5.96326 18.0866 6.06195 18.1174 6.16108 18.1174C6.23714 18.1174 6.31358 18.0993 6.38358 18.0626L9.12851 16.6194L11.8735 18.0626C12.0346 18.1473 12.2298 18.1331 12.3771 18.0261C12.5244 17.9191 12.5981 17.7378 12.5673 17.5584L12.0431 14.5018L14.2638 12.3372C14.3941 12.2101 14.441 12.0201 14.3848 11.847ZM11.1955 13.9924C11.0827 14.1023 11.0313 14.2606 11.0579 14.4158L11.4608 16.7651L9.35101 15.6558C9.21164 15.5826 9.0452 15.5826 8.90595 15.6558L6.79614 16.7651L7.19908 14.4158C7.22564 14.2606 7.17426 14.1023 7.06151 13.9924L5.3547 12.3287L7.71351 11.9859C7.86926 11.9633 8.00389 11.8654 8.07358 11.7243L9.12845 9.58676L10.1833 11.7243C10.253 11.8654 10.3876 11.9633 10.5434 11.9859L12.9023 12.3287L11.1955 13.9924Z"/>
  </g>
  <defs>
    <clipPath id="clip0">
      <rect width="32" height="32" fill="white"/>
    </clipPath>
  </defs>
</svg>
