<svg width="32" height="32" viewBox="0 0 32 32"
  xmlns="http://www.w3.org/2000/svg">
  <path d="M29.8102 13.0721C29.2326 12.9019 28.7947 12.4759 28.6086 11.9033C28.4226 11.3307 28.5265 10.7285 28.8937 10.2514C29.7396 9.15246 29.7594 7.7174 28.9443 6.59546C28.1292 5.47353 26.7582 5.0489 25.4517 5.51384C24.8844 5.71571 24.2798 5.62846 23.7926 5.27453C23.3054 4.92059 23.0356 4.37246 23.0522 3.77059C23.0906 2.38434 22.2632 1.21165 20.9443 0.783152C19.6254 0.354652 18.2667 0.816964 17.4829 1.96103C17.1426 2.45778 16.6021 2.74259 16 2.74259C15.3979 2.74259 14.8574 2.45771 14.5171 1.96096C13.7333 0.816902 12.3746 0.354652 11.0557 0.783089C9.73687 1.21165 8.90938 2.38428 8.94775 3.77059C8.96444 4.3724 8.69463 4.92059 8.2075 5.27446C7.72038 5.6284 7.11569 5.71559 6.54838 5.51378C5.24181 5.04896 3.87087 5.47346 3.05575 6.5954C2.24062 7.71734 2.2605 9.1524 3.10631 10.2513C3.47356 10.7285 3.5775 11.3306 3.39144 11.9032C3.20537 12.4758 2.76744 12.9018 2.18987 13.072C0.859562 13.464 0 14.6133 0 16C0 17.3868 0.8595 18.5362 2.18981 18.9281C2.76737 19.0983 3.20531 19.5242 3.39138 20.0969C3.57744 20.6696 3.47356 21.2716 3.10631 21.7487C2.26044 22.8477 2.24056 24.2827 3.05569 25.4047C3.87087 26.5266 5.24175 26.951 6.54838 26.4863C7.11569 26.2845 7.72038 26.3717 8.20744 26.7256C8.69456 27.0795 8.96438 27.6277 8.94775 28.2295C8.90938 29.6158 9.73687 30.7884 11.0557 31.217C11.3825 31.3232 11.7116 31.3747 12.0339 31.3746C13.0125 31.3746 13.9275 30.8997 14.5171 30.0391C14.8574 29.5424 15.3979 29.2575 16 29.2575C16.6021 29.2575 17.1426 29.5424 17.4829 30.0391C18.2668 31.1832 19.6254 31.6455 20.9443 31.217C22.2632 30.7884 23.0907 29.6158 23.0523 28.2295C23.0357 27.6277 23.3055 27.0795 23.7926 26.7255C24.2798 26.3717 24.8843 26.2843 25.4517 26.4863C26.7584 26.9511 28.1292 26.5266 28.9444 25.4047C29.7595 24.2827 29.7397 22.8477 28.8937 21.7487C28.5265 21.2716 28.4226 20.6695 28.6087 20.0968C28.7948 19.5242 29.2327 19.0982 29.8102 18.928C31.1405 18.5362 32 17.3869 32 16C32 14.6133 31.1404 13.464 29.8102 13.0721ZM29.4556 17.7243C28.4892 18.009 27.7264 18.751 27.4151 19.7091C27.1038 20.6672 27.2848 21.7158 27.8993 22.5142C28.5039 23.2996 28.3111 24.1413 27.9291 24.6671C27.5471 25.1929 26.8061 25.6363 25.8723 25.304C24.9231 24.9663 23.87 25.1182 23.055 25.7103C22.24 26.3025 21.7701 27.2572 21.7979 28.2643C21.8253 29.255 21.1746 29.8227 20.5566 30.0235C19.9383 30.2244 19.0784 30.1476 18.5182 29.3299C17.9488 28.4988 17.0074 28.0027 16.0001 28.0027C14.9927 28.0027 14.0513 28.4988 13.4819 29.3299C12.9218 30.1475 12.0618 30.2244 11.4436 30.0235C10.8255 29.8227 10.1748 29.2551 10.2022 28.2643C10.2301 27.2572 9.76012 26.3025 8.94512 25.7104C8.41625 25.3261 7.78706 25.1273 7.15112 25.1273C6.80706 25.1273 6.461 25.1855 6.12775 25.304C5.19394 25.6363 4.453 25.1928 4.071 24.6671C3.689 24.1413 3.49619 23.2997 4.10081 22.5142C4.71525 21.7158 4.89625 20.6672 4.58494 19.7091C4.27362 18.751 3.51088 18.009 2.5445 17.7244C1.59369 17.4443 1.25494 16.65 1.25494 16.0002C1.25494 15.3503 1.59369 14.556 2.54444 14.2759C3.51081 13.9912 4.27356 13.2493 4.58488 12.2912C4.89619 11.3332 4.71519 10.2845 4.10075 9.48615C3.49619 8.70071 3.68894 7.85903 4.071 7.33321C4.45294 6.8074 5.19394 6.36409 6.12775 6.69628C7.07681 7.03396 8.13006 6.88209 8.94512 6.2899C9.76012 5.69771 10.2301 4.74303 10.2022 3.73603C10.1748 2.74521 10.8255 2.17759 11.4436 1.97678C12.0616 1.77603 12.9217 1.85271 13.4819 2.6704C14.0513 3.50146 14.9927 3.99765 16.0001 3.99765C17.0075 3.99765 17.9488 3.50146 18.5182 2.6704C19.0783 1.85271 19.9384 1.77596 20.5565 1.97678C21.1746 2.17759 21.8253 2.74521 21.7979 3.73609C21.77 4.74309 22.24 5.69784 23.0549 6.28996C23.87 6.88209 24.9231 7.03403 25.8723 6.69628C26.8062 6.36403 27.5471 6.80746 27.9291 7.33328C28.3111 7.85903 28.5039 8.70072 27.8993 9.48621C27.2849 10.2845 27.1039 11.3332 27.4152 12.2912C27.7265 13.2493 28.4893 13.9913 29.4556 14.276C30.4064 14.556 30.7451 15.3503 30.7451 16.0002C30.7451 16.6502 30.4063 17.4442 29.4556 17.7243Z"/>
  <path d="M16 6.0918C13.8183 6.0918 11.7489 6.78711 10.0154 8.10261C8.33847 9.37517 7.08841 11.1823 6.4956 13.191C6.39747 13.5234 6.58741 13.8724 6.91978 13.9704C6.9791 13.9879 7.03885 13.9962 7.09766 13.9962C7.3686 13.9962 7.6186 13.8194 7.69916 13.5462C8.21678 11.7924 9.30878 10.2142 10.774 9.10223C12.2875 7.95373 14.0945 7.34667 16 7.34667C16.3465 7.34667 16.6274 7.06573 16.6274 6.71923C16.6274 6.37267 16.3465 6.0918 16 6.0918Z"/>
  <path d="M23.6306 21.3216C23.3605 21.1044 22.9655 21.1474 22.7485 21.4175C21.0953 23.4741 18.6356 24.6536 16.0001 24.6536C15.6535 24.6536 15.3726 24.9345 15.3726 25.281C15.3726 25.6275 15.6536 25.9085 16.0001 25.9085C19.0177 25.9085 21.8339 24.5581 23.7266 22.2036C23.9437 21.9336 23.9007 21.5386 23.6306 21.3216Z"/>
  <path d="M24.4713 20.5384C24.8236 20.5384 25.1092 20.2529 25.1092 19.9006C25.1092 19.5483 24.8236 19.2627 24.4713 19.2627C24.119 19.2627 23.8334 19.5483 23.8334 19.9006C23.8334 20.2529 24.119 20.5384 24.4713 20.5384Z"/>
  <path d="M14.7758 20.8945L10.5245 16.6431C10.3414 16.4601 10.047 16.5973 9.83774 16.8066C9.62192 17.0224 9.49111 17.3103 9.67424 17.4934L12.3035 20.1227L8.60161 18.9454C8.01292 18.7623 7.82324 18.8211 7.51586 19.1285C7.30005 19.3443 7.17574 19.6387 7.35886 19.8218L11.6037 24.0666C11.7803 24.2432 12.0812 24.1255 12.297 23.9096C12.5064 23.7003 12.6306 23.393 12.454 23.2163L9.82474 20.587L13.8602 21.8101C14.1742 21.9017 14.4162 21.7905 14.6188 21.5878C14.8282 21.3785 14.9524 21.0711 14.7758 20.8945Z"/>
  <path d="M18.4321 17.0418C18.2293 16.8391 17.9547 16.7606 17.7846 16.9306L15.9337 18.7816L14.619 17.467L15.6131 16.4728C15.7963 16.2897 15.7047 16.0281 15.5543 15.8776C15.3777 15.7011 15.1161 15.6356 14.9461 15.8057L13.9519 16.7998L12.6437 15.4916L14.4946 13.6407C14.6647 13.4706 14.5862 13.196 14.3834 12.9932C14.2069 12.8166 13.9322 12.7119 13.7491 12.8951L11.4205 15.2235C11.2309 15.4132 11.1394 15.6879 11.3159 15.8645L15.5608 20.1093C15.7374 20.286 16.0121 20.1944 16.2017 20.0047L18.5302 17.6763C18.7133 17.4931 18.6087 17.2185 18.4321 17.0418Z"/>
  <path d="M23.063 12.6466L20.244 7.23764C20.2309 7.21145 20.2047 7.17227 20.1785 7.14608C19.9888 6.95639 19.5375 7.10683 19.2955 7.34883C19.1648 7.47964 19.0928 7.64314 19.1844 7.80014L21.696 12.3785L18.8639 10.6583C18.6612 10.5341 18.3996 10.6518 18.2165 10.835C18.0268 11.0246 17.9091 11.2862 18.0333 11.489L19.7534 14.3211L15.175 11.8095C15.018 11.7179 14.8546 11.7898 14.7237 11.9206C14.4817 12.1626 14.3313 12.614 14.521 12.8036C14.5471 12.8298 14.5864 12.856 14.6125 12.869L20.0216 15.688C20.2766 15.8253 20.6168 15.6684 20.8653 15.4198C21.1073 15.1778 21.2708 14.8312 21.1204 14.5892L19.7796 12.3981L21.9641 13.7455C22.2061 13.8958 22.5528 13.7323 22.7948 13.4903C23.0433 13.2417 23.1937 12.9082 23.063 12.6466Z"/>
</svg>
