<svg width="20" height="14" viewBox="0 0 20 14"
  xmlns="http://www.w3.org/2000/svg">
  <path fill-rule="evenodd" clip-rule="evenodd" d="M19.3224 3.56C19.3134 3.166 19.2244 1.474 18.3994 1.16C16.7014 0.514 12.5044 0 9.66643 0C6.82743 0 2.63043 0.514 0.932427 1.16C0.106427 1.474 0.0184273 3.169 0.00942731 3.561C-0.00457269 3.676 -0.00357272 3.788 0.0164273 3.89L0.177427 4.693C0.263427 5.133 0.691427 5.42 1.13543 5.335L4.85843 4.619C5.30143 4.534 5.59143 4.109 5.50543 3.669L5.31243 2.677C5.65543 2.629 6.00043 2.584 6.34143 2.543L6.23043 4.149C6.23043 4.149 0.675427 7.088 0.675427 8.18C0.675427 9.273 0.675427 13.518 0.675427 13.518H9.66643H18.6564C18.6564 13.518 18.6564 9.237 18.6564 8.18C18.6564 7.124 13.1014 4.149 13.1014 4.149L12.9904 2.543C13.3314 2.584 13.6764 2.629 14.0194 2.677L13.8264 3.669C13.7404 4.109 14.0304 4.534 14.4734 4.619L18.1974 5.335C18.6404 5.42 19.0684 5.133 19.1544 4.693L19.3154 3.89C19.3354 3.788 19.3364 3.675 19.3224 3.56ZM9.66643 2.297C10.0114 2.297 11.3354 2.358 11.7274 2.408C11.7274 2.401 11.5994 3.994 11.5964 3.989H9.66643H7.73543L7.61643 2.407C8.36543 2.338 9.06643 2.297 9.66643 2.297ZM9.66643 11.329C8.23243 11.329 7.06943 10.256 7.06943 8.931C7.06943 7.607 8.23243 6.533 9.66643 6.533C11.1004 6.533 12.2624 7.607 12.2624 8.931C12.2624 10.256 11.1004 11.329 9.66643 11.329Z"/>
</svg>
