<svg width="22" height="22" viewBox="0 0 22 22"
  xmlns="http://www.w3.org/2000/svg">
  <g clip-path="url(#clip0)">
    <path d="M21.9807 8.49722C21.9342 8.35466 21.811 8.2507 21.6625 8.22904L14.5388 7.19376L11.353 0.738718C11.2869 0.604041 11.1498 0.518982 11.0002 0.518982C10.8505 0.518982 10.7131 0.604041 10.6473 0.738718L7.46116 7.19416L0.337455 8.22944C0.188995 8.2511 0.0661321 8.35466 0.0192708 8.49761C-0.0268029 8.63977 0.0113949 8.7965 0.1189 8.90085L5.27404 13.9256L4.05682 21.021C4.03162 21.1687 4.09227 21.3179 4.21316 21.4061C4.33484 21.4951 4.4959 21.5065 4.62782 21.4361L11.0002 18.0865L17.3717 21.4361C17.4292 21.4664 17.4926 21.4813 17.5552 21.4813C17.6368 21.4813 17.7179 21.4561 17.7868 21.4061C17.9081 21.3179 17.9687 21.1687 17.9431 21.021L16.7263 13.926L21.8814 8.90085C21.9886 8.79571 22.0271 8.63937 21.9807 8.49722Z"/>
  </g>
  <defs>
    <clipPath id="clip0">
      <rect width="22" height="22" fill="white"/>
    </clipPath>
  </defs>
</svg>
